<svg width="40" height="40" viewBox="0 0 40 40" fill="none" xmlns="http://www.w3.org/2000/svg">
<path d="M5.83325 18.3334V23.3334C5.83325 29.6187 5.83325 32.7615 7.78587 34.714C9.7385 36.6667 12.8812 36.6667 19.1666 36.6667H20.8333C27.1186 36.6667 30.2614 36.6667 32.2139 34.714M34.1666 18.3334V23.3334C34.1666 25.283 34.1666 26.9302 34.1083 28.3334" stroke="white" stroke-width="2.5" stroke-linecap="round"/>
<path d="M15.8335 3.33337H24.1668M15.8335 3.33337L14.7472 14.1957C14.4365 17.3034 16.8769 20 20.0001 20C23.1234 20 25.5638 17.3034 25.2531 14.1957L24.1668 3.33337M15.8335 3.33337H12.3629C10.8496 3.33337 10.0929 3.33337 9.44388 3.51129C8.0764 3.88617 6.93238 4.82402 6.2966 6.09144M15.8335 3.33337L14.6259 15.4088C14.3653 18.0152 12.1721 20 9.55267 20C6.33525 20 3.92215 17.0565 4.55313 13.9016L4.66678 13.3334M24.1668 3.33337H27.6373C29.1508 3.33337 29.9074 3.33337 30.5564 3.51129C31.9237 3.88617 33.0679 4.82402 33.7036 6.09144C34.0054 6.69292 34.1537 7.43492 34.4506 8.91892L35.4471 13.9016C36.0781 17.0565 33.6649 20 30.4476 20C27.8282 20 25.6349 18.0152 25.3743 15.4088L24.1668 3.33337Z" stroke="white" stroke-width="2.5" stroke-linecap="round"/>
<path d="M15.8333 35.8333V30.8333C15.8333 29.2756 15.8333 28.4968 16.1682 27.9166C16.3876 27.5366 16.7033 27.221 17.0833 27.0016C17.6634 26.6666 18.4423 26.6666 19.9999 26.6666C21.5576 26.6666 22.3364 26.6666 22.9166 27.0016C23.2966 27.221 23.6123 27.5366 23.8316 27.9166C24.1666 28.4968 24.1666 29.2756 24.1666 30.8333V35.8333" stroke="white" stroke-width="2.5" stroke-linecap="round"/>
</svg>
