<svg width="40" height="40" viewBox="0 0 40 40" fill="none" xmlns="http://www.w3.org/2000/svg">
<path d="M36.6666 20.3399V22.875C36.6666 29.3764 36.6666 32.6272 34.7139 34.6469C32.7614 36.6667 29.6186 36.6667 23.3333 36.6667H16.6666C10.3812 36.6667 7.2385 36.6667 5.28587 34.6469C3.33325 32.6272 3.33325 29.3764 3.33325 22.875V20.3399C3.33325 16.5259 3.33325 14.6188 4.19859 13.0379C5.06392 11.4571 6.64484 10.4759 9.80664 8.51359L13.14 6.44482C16.4822 4.37052 18.1534 3.33337 19.9999 3.33337C21.8464 3.33337 23.5176 4.37052 26.8599 6.44482L30.1933 8.51357C33.3551 10.4759 34.9359 11.4571 35.8013 13.0379" stroke="white" stroke-width="2.5" stroke-linecap="round"/>
<path d="M25 30H15" stroke="white" stroke-width="2.5" stroke-linecap="round"/>
</svg>
