<svg width="209" height="273" viewBox="0 0 209 273" fill="none" xmlns="http://www.w3.org/2000/svg">
<path d="M208.66 110.43L208 13.34C94.23 -16.67 0.76 13.34 0.76 13.34V15.34L0.66 13.34L0 110.43L0.16 109.91C0.21 142.77 9.89 228.4 104.38 272.53C198.57 228.54 208.49 143.32 208.6 110.23L208.66 110.43Z" fill="#EFD50F"/>
<path d="M203.93 16.5099L203.25 16.3399C105.02 -8.52008 21.2 11.9099 5.39 16.2599L4.73 16.4399L4.23 90.4499L4.26 109.9C4.3 140.89 12.9 214.42 87.74 259.09C87.74 259.09 6.34 214.91 6.06 109.9L6.03 90.4599L6.52 17.8199L6.96 17.6999C22.61 13.4999 105.57 -6.21008 201.68 17.8099L202.13 17.9199L202.71 104.15L202.69 110.21C203.29 141.92 194.96 168.8 183.47 190.63C159.8 235.6 121.7 259.1 121.7 259.1C147.69 243.03 170.23 216.75 182.37 195.08C201.96 160.11 204.44 127.16 204.5 110.22L204.52 104.15L203.93 16.5199V16.5099Z" fill="black"/>
<path d="M82.85 216.66H87.97V224.06C85.85 225.51 82.92 226.29 80.35 226.29C74.7 226.29 70.58 222.52 70.58 217.14C70.58 211.76 74.7 207.99 80.48 207.99C83.93 207.99 86.7 209.19 88.48 211.36L84.71 214.68C83.61 213.4 82.33 212.76 80.78 212.76C78.18 212.76 76.53 214.43 76.53 217.13C76.53 219.83 78.18 221.5 80.7 221.5C81.42 221.5 82.12 221.38 82.85 221.07V216.65V216.66Z" fill="black"/>
<path d="M104.65 219.53V225.88H98.75V219.46L92.16 208.39H98.38L101.95 214.43L105.55 208.39H111.25L104.65 219.53Z" fill="black"/>
<path d="M131.38 225.88L131.33 217.91L127.53 224.31H124.93L121.13 218.18V225.88H115.75V208.39H120.6L126.3 217.71L131.85 208.39H136.7L136.75 225.88H131.38Z" fill="black"/>
<path d="M186.65 30.83C186.65 33.38 184.66 35.39 182.11 35.39C179.56 35.39 177.59 33.39 177.59 30.86C177.59 28.33 179.55 26.33 182.13 26.33C184.71 26.33 186.65 28.28 186.65 30.83ZM185.61 30.83C185.61 28.82 184.17 27.3 182.13 27.3C180.09 27.3 178.63 28.85 178.63 30.85C178.63 32.85 180.09 34.4 182.11 34.4C183.15 34.4 184.06 33.98 184.68 33.3H183.13L182.27 31.97H181.67V33.3H180.09V28.4H182.32C183.71 28.4 184.53 29.09 184.53 30.18C184.53 30.89 184.23 31.39 183.68 31.68L184.72 33.27C185.28 32.63 185.62 31.78 185.62 30.82M182.22 30.83C182.7 30.83 182.96 30.57 182.96 30.18C182.96 29.79 182.69 29.53 182.22 29.53H181.67V30.84H182.22V30.83Z" fill="black"/>
<path d="M42.78 149.53L53.03 131.12H61.99L49.32 153.66L53.35 179.18H44.23L41 158.51L36.88 179.18H28L37.53 131.12H46.41L42.78 149.53Z" fill="black"/>
<path d="M69.1 179.76H67.4C63.9 179.76 61.37 178.87 59.81 177.08C58.25 175.29 57.74 173.07 58.28 170.4L61.75 152.9C62.4 149.89 63.54 147.63 65.18 146.15C66.82 144.66 69.23 143.92 72.41 143.92H74.11C77.39 143.92 79.91 144.69 81.66 146.21C83.41 147.74 84.01 149.88 83.48 152.64L79.85 170.85C78.56 176.79 74.98 179.76 69.11 179.76M72.82 150.31C71.47 150.31 70.61 151.19 70.24 152.96L66.77 170.46C66.45 172.27 67.09 173.17 68.71 173.17C70.16 173.17 71.08 172.31 71.45 170.59L74.92 152.96C75.3 151.2 74.6 150.31 72.82 150.31Z" fill="black"/>
<path d="M102.36 131.12L92.83 179.18H84.44L93.96 131.12H102.36Z" fill="black"/>
<path d="M114.55 144.43L107.69 179.18H99.29L106.15 144.43H114.55ZM116.41 135.13L114.96 142.56H106.56L108.02 135.13H116.42H116.41Z" fill="black"/>
<path d="M120.93 144.43H138.21L137 150.24L122.71 172.85H133.04L131.75 179.18H113.34L114.63 173.04L128.76 150.63H119.64L120.93 144.43Z" fill="black"/>
<path d="M152.5 143.91H154.52C157.64 143.91 159.97 144.66 161.5 146.17C163.03 147.68 163.53 149.77 162.99 152.44L160.97 162.58H148.37L146.76 170.72C146.49 172.36 147.16 173.18 148.78 173.18C150.02 173.18 150.83 172.34 151.2 170.66L152.33 164.91H160.49L159.28 171.11C158.69 174.08 157.54 176.27 155.85 177.66C154.15 179.06 151.85 179.76 148.95 179.76H146.93C144.13 179.76 141.94 179.01 140.35 177.5C138.76 175.99 138.21 173.84 138.7 171.04L142.41 152.24C143.43 146.69 146.8 143.91 152.5 143.91ZM150.4 152.5L149.51 156.89H154.19L155.08 152.5C155.46 150.65 154.78 149.72 153.06 149.72C152.47 149.72 151.98 149.85 151.61 150.11C151.23 150.37 150.96 150.67 150.8 151.02C150.64 151.36 150.5 151.86 150.4 152.5Z" fill="black"/>
<path d="M169.13 178.14L168.56 144.42H176.55L176.15 164.64L182.77 144.42H190.92L174.93 186.15C174.28 187.91 173.54 189.22 172.71 190.06C171.87 190.9 170.7 191.32 169.2 191.32H160.72L161.93 184.8H165.56C166.31 184.8 166.82 184.67 167.09 184.41C167.36 184.15 167.66 183.64 167.98 182.86L168.63 181.05C168.95 180.06 169.12 179.09 169.12 178.14" fill="black"/>
<path d="M124.74 132.44L124.23 135H128.72L128.34 136.8H123.88L123.18 140.32H120.92L122.86 130.64H130.17L129.8 132.44H124.74Z" fill="black"/>
<path d="M133.76 130.64H136.01L134.08 140.32H131.82L133.76 130.64Z" fill="black"/>
<path d="M142 132.47H138.9L139.27 130.65H147.71L147.33 132.47H144.25L142.67 140.32H140.43L142 132.47Z" fill="black"/>
<path d="M159.85 130.64L157.92 140.32H156.08L152.47 134.27L151.26 140.32H149.04L150.98 130.64H152.83L156.44 136.71L157.64 130.64H159.85Z" fill="black"/>
<path d="M166.08 132.44L165.67 134.54H170.16L169.82 136.29H165.31L164.87 138.52H170.15L169.77 140.32H162.28L164.22 130.64H171.53L171.16 132.44H166.08Z" fill="black"/>
<path d="M173.12 139.41L174.03 137.68C174.92 138.33 176.08 138.69 177.22 138.69C178.45 138.69 179.23 138.26 179.23 137.56C179.23 136.01 174.43 136.84 174.43 133.76C174.43 131.77 176.17 130.48 178.85 130.48C180.15 130.48 181.35 130.77 182.19 131.31L181.35 133.02C180.62 132.52 179.68 132.27 178.72 132.27C177.42 132.27 176.66 132.77 176.66 133.46C176.65 135.05 181.46 134.22 181.46 137.19C181.46 139.2 179.69 140.48 177 140.48C175.42 140.48 173.93 140.01 173.12 139.4" fill="black"/>
<path d="M184 139.41L184.91 137.68C185.8 138.33 186.96 138.69 188.1 138.69C189.33 138.69 190.11 138.26 190.11 137.56C190.11 136.01 185.31 136.84 185.31 133.76C185.31 131.77 187.05 130.48 189.73 130.48C191.03 130.48 192.23 130.77 193.07 131.31L192.23 133.02C191.5 132.52 190.56 132.27 189.6 132.27C188.3 132.27 187.54 132.77 187.54 133.46C187.53 135.05 192.34 134.22 192.34 137.19C192.34 139.2 190.57 140.48 187.88 140.48C186.3 140.48 184.81 140.01 184 139.4" fill="black"/>
<path d="M113.48 185.56H110.38L110.75 183.74H119.19L118.81 185.56H115.73L114.15 193.41H111.92L113.48 185.56Z" fill="black"/>
<path d="M124.33 185.53L123.91 187.64H128.4L128.06 189.38H123.55L123.11 191.62H128.39L128.02 193.41H120.52L122.46 183.74H129.77L129.4 185.53H124.33Z" fill="black"/>
<path d="M138.75 191.34H134.24L132.98 193.41H130.59L136.85 183.73H139.06L141.44 193.41H139.2L138.74 191.34H138.75ZM138.38 189.64L137.56 185.91L135.28 189.64H138.38Z" fill="black"/>
<path d="M157.36 183.74L155.44 193.41H153.33L154.47 187.66L150.78 192.39H149.78L147.79 187.61L146.63 193.41H144.53L146.46 183.74H148.29L150.71 189.76L155.44 183.74H157.36Z" fill="black"/>
<path d="M56.54 91.22H55.36L53.57 84.78H54.75L56.54 91.22Z" fill="black"/>
<path d="M56.79 90.7H55.61L57.4 84.26H58.58L56.79 90.7Z" fill="black"/>
<path d="M56.1 92.14C53.69 92.14 51.73 89.98 51.73 87.33C51.73 84.68 53.69 82.52 56.1 82.52C58.51 82.52 60.47 84.68 60.47 87.33C60.47 89.98 58.51 92.14 56.1 92.14ZM56.1 82.74C53.81 82.74 51.95 84.8 51.95 87.33C51.95 89.86 53.81 91.92 56.1 91.92C58.39 91.92 60.25 89.86 60.25 87.33C60.25 84.8 58.39 82.74 56.1 82.74Z" fill="black"/>
<path fill-rule="evenodd" clip-rule="evenodd" d="M156.72 40.42C156.33 41.16 155.68 42.78 155.37 43.94C155.06 45.1 154.25 45.87 153.82 46.42C153.4 46.96 152.23 47.5 152.23 47.5C152.23 47.5 152.31 47.77 152.11 48.04C151.35 49 148.67 51.32 148.97 53.34C149.02 53.67 149.28 54.27 149.62 54.37C148.79 56.56 151.71 60.7 149.99 62.21C148.8 63.25 146.6 63.52 145.09 63.04C144.72 62.92 143.52 62.25 143.41 61.9C143.29 61.55 141.98 60.55 141.59 60.39C141.21 60.24 138.73 59.46 138.73 59.46C138.73 59.46 139.19 57.33 139.39 56.56C139.72 55.09 138.94 51.37 137.92 49.94C137.84 49.71 135.87 47.08 135.67 46.69C135.11 45.56 136.3 45.18 135.22 44.84C135.05 44.79 134.87 44.69 134.79 44.52C134.6 44.13 134.75 43.51 134.75 43.51C134.75 43.51 136.63 41.69 136.74 41.48C136.86 41.27 137.53 40.94 136.82 40.07C136.1 39.2 133.8 37.52 131.36 37.75C127.74 38.1 126.37 39.8 126.1 40.11C125.83 40.42 126.06 40.69 126.2 41C126.34 41.31 128.04 44.71 128.17 44.97C128.31 45.22 128.31 45.72 128.19 45.92C126.88 46.9 125.13 47.73 124.34 51.03C124.24 51.17 123.99 51.09 123.66 51.28C123.33 51.47 123.74 54.94 123.79 55.25C123.85 55.56 124.56 57.5 124.37 57.8C124.18 58.11 122.63 59.5 122.4 60.16C122.17 60.82 122.48 61.59 121.94 61.86C121.4 62.13 118.15 65.11 117.76 65.15C117.75 65.15 117.72 65.15 117.69 65.15C117.35 65.52 115.87 66.92 115.38 67.69C114.89 68.46 113.99 71.02 113.83 72.23C113.723 73.0367 113.5 73.5433 113.16 73.75C112.64 74.06 110.09 73.1 109.06 72.64C108.03 72.18 107.15 71.94 107.2 71.61C107.25 71.31 110.94 71.86 110.94 71.46C110.94 71.31 110.58 70.97 109.86 70.56C109.14 70.15 103.8 64.88 103.64 64.34C103.31 63.19 107 65.03 107.3 65.22C108.28 65.84 110.89 66.61 112.16 66.64C113.43 66.67 113.81 66.33 113.5 66.05C113.19 65.77 112.31 65.56 111.59 65.35C110.63 65.08 105.8 64.11 106.27 62.61C106.42 62.12 107.43 62.79 107.9 63.02C108.36 63.25 110.25 63.9 111.07 64.1C111.9 64.31 113.88 64.59 114.84 64.59C115.39 64.59 115.97 64.54 116.51 64.43C115.88 63.98 115.13 63.41 114.58 62.91C112.83 63.17 110.1 62.83 108.65 61.8C107.2 60.77 109.81 61.08 110.07 61.1C110.66 61.15 112.86 61.85 113.5 61.82C113.6 61.82 113.68 61.8 113.77 61.77C113.75 61.1 113.76 59.71 113.24 59.23C112.66 58.69 104.57 50.83 104.57 50.83C104.57 50.83 100.04 46.92 99.35 46.5C98.66 46.08 96.64 45.26 96.06 44.8C95.48 44.34 94.75 43.1 94.78 42.36C94.8 41.99 95.26 40.7 95.16 39.46C95.01 37.68 94.23 35.97 93.81 36.89C93.58 37.4 93.15 38.71 92.19 39.53C91.42 40.19 90.03 40.29 88.86 40.06C88.01 39.9 88.18 36.98 89.34 35.34C89.48 35.15 87.89 35.4 87.48 35.42C87.07 35.44 85.84 35.09 85.74 35.13C84.55 34.9 84.57 38.09 84.48 38.56C84.46 38.66 83.69 38.27 83.65 38.67C83.61 39.08 83.96 39.69 83.83 39.98C83.69 40.27 83.21 40.27 83.07 40.17C82.94 40.07 81.78 37.19 81.7 36.86C81.62 36.53 81.37 35.78 81.1 35.87C80.83 35.97 80.66 37.34 80.4 38C80.15 38.66 80.3 40.03 80.53 40.55C80.76 41.07 81.32 41.69 81.32 41.95C81.32 42.21 81.2 42.2 80.99 42.51C80.78 42.82 77.78 45.71 77.89 46.34C78.01 46.98 79.03 47.11 78.9 47.77C78.76 48.43 78.57 48.66 77.87 49.24C77.17 49.82 76.25 49.86 76.17 50.69C76.09 51.52 76.04 54.4 76.11 54.67C76.19 54.94 76.4 54.94 76.69 55.23C76.98 55.52 77.58 55.83 77.58 56.24C77.58 56.65 77.58 57.6 77.45 57.94C77.31 58.29 77.33 57.77 76.93 58.4C76.52 59.04 76.7 59.43 76.74 59.72C76.78 60.01 76.88 60.03 76.91 60.22C76.95 60.41 76.91 61.48 76.91 61.48C76.91 61.48 76.31 62.45 76.42 63.03C76.44 63.13 76.46 63.22 76.49 63.32C77.01 62.72 77.28 62.97 77.7 62.99C78.11 63.02 78.14 63.33 78.42 63.38C78.7 63.43 78.63 63.04 78.7 62.58C78.78 62.12 78.52 61.99 78.23 61.78C77.95 61.57 77.49 61.52 77.39 61.16C77.29 60.8 77.43 60.16 77.46 59.93C77.49 59.7 79.53 59.78 79.53 59.71C79.53 59.64 79.76 58.1 79.59 57.96C79.42 57.82 78.4 57.96 78.04 57.94C77.68 57.91 77.99 57.66 78.02 57.14C78.04 56.62 78.17 56.08 78.56 55.44C78.95 54.79 79.62 52.34 79.64 51.98C79.66 51.62 79.49 51.36 79.05 51.28C78.61 51.2 78.12 50.69 78.07 50.27C78.02 49.86 78.48 49.55 78.79 49.34C79.1 49.14 79.9 48.1 80.36 47.56C80.82 47.02 80.62 47.15 80.59 46.91C80.57 46.68 80.1 46.65 79.82 46.27C79.54 45.88 79.85 45.78 80.03 45.44C80.21 45.1 81.06 44.74 81.5 44.1C81.94 43.45 81.83 43.69 82.58 43.69C82.58 43.69 85.43 44.17 86.59 44.22C87.75 44.27 87.58 44.33 87.75 44.74C87.96 45.24 88.27 45.28 87 45.64C86.64 45.74 86.56 45.92 86.46 46.1C86.36 46.28 86.32 48.94 86.32 49.08C86.32 49.22 86.33 49.47 86.83 49.56C87.33 49.65 88.28 50.18 88.43 50.73C88.58 51.28 88.2 51.53 87.98 51.83C87.76 52.13 86.77 51.93 86.41 51.99C84.97 52.19 84.07 54.88 83.37 57.24C83.28 57.54 82.98 58.3 82.73 58.37C82.47 58.45 82.01 58.06 81.57 57.91C81.13 57.76 80.49 57.83 80.41 58.02C80.33 58.2 80.36 58.2 80.31 58.59C80.26 58.98 80.39 59.72 80.62 59.75C80.85 59.78 81.32 59.8 81.73 59.85C82.14 59.9 82.09 59.98 82.3 60.47C82.51 60.96 82.09 63.44 82.09 63.44C82.09 63.44 82.4 63.39 82.81 63.36C83.23 63.33 83.08 61.8 83.03 61.02C82.97 60.16 83.89 60.04 84.2 60.92C84.33 61.28 84.2 61.67 84.22 62.29C84.24 62.91 84.08 64.08 84.08 64.7C84.08 65.32 84.07 66.27 83.89 66.66C83.71 67.05 83.07 67.25 82.73 67.33C82.39 67.41 82.39 67.28 82.37 67C82.34 66.71 82.86 65.89 83.12 65.06C83.38 64.23 82.94 64.11 82.42 63.92C81.9 63.74 81.83 64.23 81.65 64.85C81.47 65.47 80.88 65.83 80.36 66.11C79.85 66.39 79.74 66.24 79.43 66.06C79.12 65.88 77.83 64.13 77.52 64.02C77.21 63.91 76.93 64.25 76.8 64.5C76.8 64.58 76.81 64.65 76.8 64.72C76.76 65.14 77.07 66.11 77.3 66.77C77.53 67.43 77.38 68.16 77.73 68.2C78.08 68.24 78.93 68.12 79.28 68.47C79.63 68.82 80.91 68.47 80.91 68.47C80.91 68.47 81.45 67.97 81.8 67.97C82.09 67.97 82.55 67.73 82.73 68.1C83.69 69.33 82.84 76.85 82.64 78.83C82.56 79.61 82.15 79.36 82.09 78.64C81.95 76.77 81.81 74.89 81.67 73.02C70.49 74.19 65.19 71.17 59.22 68.61C64.26 72.09 67.64 76.31 70.41 80.79C73.42 81.28 76.4 82.2 79.42 83.27C81.74 83.93 83.87 84.89 84.1 85.09C84.33 85.28 83.4 85.4 83.21 85.32C81.65 84.7 76 82.96 70.38 82.3C65.43 81.72 60.44 82.08 59.29 83.26C59.89 83.85 60.35 84.59 60.63 85.44C63.65 85.81 66.71 86.05 69.62 86.2C69.79 85.7 70.25 85.35 70.81 85.35C71.4 85.35 71.89 85.75 72.02 86.3C76.82 86.46 81.03 86.39 83.71 86.29C83.8 86.27 83.88 86.25 83.94 86.25C84.64 86.22 85 85.77 85.21 85.92C85.72 86.27 85.46 86.64 85.31 87.02C85.13 87.47 85.36 87.88 85.97 87.74C86.71 87.57 86.53 87.11 86.32 86.69C86.22 86.49 85.99 86.32 86.03 85.98C86.16 84.95 87.46 85.08 88.08 84.92C90.12 84.41 94.04 81.57 95.89 80.45C96.87 79.86 97.44 80.25 98.8 80.25C99.36 79.73 100.11 79.42 100.78 79.4C100.88 79.13 100.99 78.86 101.09 78.6C100.41 78.12 99.64 77.38 100.36 76.99C100.53 76.9 100.98 77.08 101.22 77.21C101.28 77.24 101.39 77.29 101.53 77.36C102.4 74.93 103.12 72.61 103.72 71.1C103.88 70.69 104.55 70.7 104.44 71.41C104.23 72.86 103.56 75.3 102.64 77.87C103.01 78.15 103.64 79 102.79 79.22C102.62 79.26 102.4 79.22 102.16 79.15C102.08 79.36 102 79.56 101.92 79.76C102.12 79.93 102.28 80.17 102.37 80.48C102.96 82.47 101.56 83.35 100.35 83.23C99.6 84.69 98.81 85.97 98.02 86.85C103.19 88.02 107.67 89.76 111.47 91.86C110.1 83.94 106.12 76.15 105.34 73.33C105.21 72.87 105.62 72.79 105.98 73C108.77 78.35 110.79 84.05 112.18 89.12C114.76 98.54 113.61 105.87 114.7 108.68C115.17 109.7 120.55 108.03 121.54 107.75C123.76 107.13 125.89 106.87 127.08 106.87C128.27 106.87 129.51 107.18 130.02 107.95C130.54 108.72 130.07 108.72 130.28 109.19C130.66 110.05 135 108.81 135.65 108.67C137.4 108.31 138.02 108.46 138.02 108.46C136.71 106.41 131.52 97.08 126.08 89.67C121.31 83.17 116.15 78.4 116.15 77.91C116.15 77.6 116.41 77.7 116.77 77.81C119.52 77.63 141.88 109.46 140.77 110.06C140.77 110.53 140.41 110.53 140 110.47C139.59 110.41 138.04 110.01 137.37 109.8C136.7 109.6 135.62 109.91 135 110.27C133.14 111.35 131.1 111.15 129.01 110.99C128.34 110.94 128.34 110.47 128.55 110.16C128.76 109.85 129.22 109.34 128.65 108.71C127.87 107.86 124.16 108.22 121.48 108.92C118.51 109.7 116.53 110.88 115.55 111.29C114.93 111.55 113.9 110.93 113.38 110.47C112.5 110 112.89 102.14 111.85 94.26C103.75 89.65 98.96 87.36 88.88 86.38C88.68 86.45 88.47 86.51 88.25 86.55C87.17 86.76 87.17 86.63 87.3 87.02C88.51 90.87 83.46 89.71 84.46 87.56C84.51 87.45 84.51 87.38 84.47 87.34C83.71 87.75 77.3 87.47 71.91 87.19C71.7 87.58 71.28 87.85 70.81 87.85C70.28 87.85 69.84 87.53 69.65 87.07C68.1 86.99 66.75 86.91 65.79 86.87C65.04 86.83 62.25 86.73 64.52 88.24C67.5 89.81 77.51 95.7 77.58 96.11C77.68 96.55 67.08 91.18 65.82 90.44C64.56 89.69 61.43 87.55 60.93 87.3C60.93 90.26 58.77 92.67 56.11 92.67C53.88 92.67 52.01 90.99 51.45 88.71C51.2 88.8 51.01 88.89 50.95 88.98C50.08 90.25 46.16 91.15 44.63 91.15C44.57 91.15 44.5 91.15 44.44 91.14C44.69 91.51 44.83 91.98 44.83 92.48C44.83 93.71 43.95 94.71 42.86 94.71C41.77 94.71 40.89 93.71 40.89 92.48C40.89 91.97 41.04 91.51 41.29 91.13C41.22 91.09 41.08 91.07 40.84 91.07C40.09 91.07 38.83 91.04 38.41 91.35C36.57 92.73 34.78 91.92 33.74 92.64C32.89 93.23 33.6 92.46 32.55 93.89C32.8 95.58 33.56 97.71 33.8 98.79C34.11 100.19 35.27 105.31 35.81 106.4C36.76 108.3 37.23 107.76 38.05 109.24C38.81 109.51 39.46 108.66 40.13 108.29C40.8 107.93 43.69 108.5 44.93 108.5C46.17 108.5 54.37 109.27 54.73 109.38C55.09 109.48 57.1 109.28 57.52 109.17C57.93 109.07 56.8 108.35 56.8 108.35C56.53 108.13 56.63 107.74 57.11 107.68C57.11 107.68 58.86 107.42 59.38 107.42C59.9 107.42 60.1 107.16 60.15 106.85C60.2 106.54 59.74 105.66 59.43 105.61C59.12 105.56 58.5 106.23 57.73 106.38C55.38 106.85 56.22 101.46 57.11 99.78C57.11 99.78 57.73 99.6 58.14 99.91C58.55 100.22 58.5 101.2 58.53 101.59C58.56 101.98 58.19 102.49 58.14 103.24C58.09 103.99 58.78 103.63 59.35 103.55C59.92 103.47 60.53 102.67 61.18 102.62C61.83 102.57 61.47 103.93 61.5 104.45C61.7 108.48 63.93 111.59 64.3 114.23C64.36 114.66 63.18 116.42 62.44 116.42C61.89 116.42 60.71 114.29 60.2 114.2C59.59 114.1 59.51 114.7 59.4 115.24C59.25 115.98 47.6 112.13 44.97 113.92C44.5 114.24 43.51 115.67 43.92 117.55C43.92 118.17 42.78 118.79 42.78 118.79C42.84 119.47 42.9 120.16 42.96 120.85C43.38 120.66 49.07 119.38 50.19 118.99C51.31 118.6 53.33 118.22 55.3 118.45C57.27 118.68 62.58 120.89 62.62 121.43C62.66 121.97 62.27 122.28 62.62 122.98C62.97 123.68 65.37 125.61 65.95 127.08C66.53 128.55 68.58 131.61 69.05 132.65C69.51 133.69 70.29 134.54 70.48 135.05C70.67 135.55 70.48 135.86 71.02 135.82C71.56 135.78 72.8 134.5 73.19 134.12C73.58 133.73 82.48 124.99 82.75 124.72C83.02 124.45 83.41 124.33 83.14 123.75C82.87 123.17 81.24 121.39 81.48 120.5C81.6 120.06 81.81 119.59 82.05 119.23C81.36 118.27 78.05 111.94 78.46 106.72C78.51 105.74 79.41 104.84 79.78 104.61C80.14 104.38 79.99 104.12 80.09 103.04C80.19 101.95 81.11 100.54 82.41 100.77C85.57 100.04 92.34 99.12 94.23 95.97C95.67 93.57 94.62 92.7 97.71 93.11C98.51 93.21 98.9 94.06 99.1 94.3C99.31 94.53 99.05 95.92 98.87 96.23C97.93 98.06 91.99 100.42 87.78 101.38C84.82 102.06 83.75 102.19 82.28 102.75C81.94 102.88 82 103.47 81.97 103.7C81.94 103.93 81.61 104.14 81.92 104.35C82.23 104.56 83.16 105.07 83.47 105.49C83.78 105.9 83.52 106.01 83.37 106.88C83.21 107.76 82.59 108.07 82.18 108.17C81.77 108.28 81.41 108.79 81.41 109.1C81.41 109.41 80.84 110.03 80.84 110.29C80.84 113.29 82.07 116.08 83.12 118.82C83.4 118.91 83.77 119.04 84.16 119.15C82.98 116.5 81.52 113.57 81.34 110.68C81.27 109.45 81.82 110.13 81.94 110.85C82.48 114.19 83.06 115.3 84.86 118.41C84.93 118.55 85.54 119.01 86.18 119.48C87.35 119.55 89.56 119.77 90.08 119.77C90.7 119.77 91.32 119.42 91.67 119.19C92.02 118.96 92.95 119.58 93.3 120.12C93.65 120.66 93.38 121.44 93.46 121.79C93.54 122.14 94.16 122.1 94.62 122.14C95.08 122.18 119.12 122.14 119.12 122.14C119.12 122.14 120.13 122.06 120.13 122.68C120.13 123.13 120.02 124.84 119.97 125.75C119.93 126.47 120.21 126.35 120.55 126.32C120.79 126.3 121.08 126.27 121.38 126.21C122.11 126.06 122.62 125.67 123.08 125.67C123.54 125.67 124.36 125.09 124.32 124.63C124.32 124.63 123.75 122.18 124.75 122.17H169.54C170.22 116.8 172.03 112.28 175.38 108.59C176.02 107.88 176.44 107.94 175.55 107.71C174.64 107.47 172.79 107.18 172.73 106.83C172.65 106.33 173.58 106.02 174.13 105.9C174.67 105.78 174.79 105.09 174.63 104.58C174.48 104.08 172.51 96.44 171.31 95.85C169.85 95.14 169.77 96.22 168.38 94.74C165.92 92.13 166.76 87.4 167.86 87.14C168.35 86.89 168.99 86.64 169.41 87.12C169.6 87.35 171.15 89.17 171.46 89.4C171.77 89.63 175.4 92.5 175.91 93.08C178.62 96.21 177.13 99.67 182.2 100.09C183.31 100.18 184.32 100.14 184.62 100.16C187.77 100.45 187.98 102.38 190.54 103.45C191 103.64 191.39 103.8 191.7 103.76C192.01 103.72 188.33 101.01 188.14 100.78C187.95 100.55 187.83 100.08 188.18 100.08C188.53 100.08 197.74 106.39 198.08 106.35C197.89 105.27 183.12 95.55 182.99 95.17C182.55 94.77 182.27 94.07 182.88 94.05C183.66 94.07 198.86 105.43 199.25 105.27C199.64 105.12 182.72 93.12 181.99 92.03C180.32 90.29 177.44 83.75 177.29 83.21C177.14 82.67 177.57 81.49 177.18 80.64C176.81 79.82 174.46 78.43 173.56 76.97C173.21 76.41 173.01 75.69 172.7 74.81C171.81 72.26 170.77 69.59 169.6 68.31C168.44 67.03 166.2 65.25 164.01 64.38C163.18 64.23 162.73 63.18 163.76 62.93C164.53 62.7 168.02 64.05 169.18 64.01C172.59 63.9 170.76 57.87 170.15 56.31C169.45 54.79 167.73 51.78 168.6 50.16C169.18 49.08 169.34 48.42 169.03 47.14C168.54 44.89 160.67 34.59 156.77 40.43M175.24 121.38C173.62 107.83 188.78 103.1 189.95 120.02C188.02 121.76 186.08 123.51 184.15 125.25C184.15 125.25 184.01 120.8 182.7 119.08C180.79 118.12 180.45 124.19 180.4 125.95C178.68 124.43 176.97 122.91 175.25 121.38M170.7 85.14C172 86.61 177 90.6 177.09 90.75C177.19 90.93 177.66 91.21 177.71 91.94C177.76 92.66 177.74 93.02 178.28 93.36C178.82 93.69 179.65 94.08 179.62 94.32C179.59 94.55 179.08 95.17 179.36 95.82C179.73 96.68 180.9 97.01 181.55 96.6C182.05 96.28 182.22 95.27 181.81 95.02C181.14 94.62 180.42 94.66 180.75 94.25C181.08 93.84 181.93 94.33 182.01 93.86C182.09 93.39 180.31 92.34 180.05 92.11C179.79 91.88 171.28 84.68 171 84.55C170.51 84.33 170.2 84.59 170.7 85.16M173.41 84.84C173.52 85.51 173.9 85.37 174.17 85.45C174.44 85.53 174.6 85.46 174.66 85.72C174.72 85.98 174.89 86.61 175.12 86.91C175.76 87.77 176.95 87.08 176.33 86.19C175.95 85.65 176.1 85.7 175.97 85.17C175.84 84.64 175.82 84.37 175.59 84.11C175.15 83.62 173.29 84.16 173.41 84.83M162.05 65.69C162.26 67.08 162.41 68.55 162.87 68.79C163.34 69.02 164.11 69.02 164.11 69.57C164.11 70.12 164.8 73.1 165.9 74.7C167.01 76.3 168.21 77.82 168.65 78.18C169.09 78.54 169.67 78.69 169.8 79.8C169.93 80.91 170.36 81.72 170.51 82.13C170.97 83.34 171.95 84.26 173.3 83.63C173.74 83.42 174.13 83.32 174.92 83.29C175.72 83.27 176.24 82.83 176.24 82.34C176.24 81.85 175.88 81.13 175.7 80.87C175.52 80.61 173.48 79.13 172.8 77.75C172.8 77.66 169.4 69.76 167.88 68.28C166.06 66.51 161.77 63.76 162.05 65.7M159.49 39.48C159.08 39.5 158.54 39.84 158.36 40.1C158.18 40.36 156.89 42.06 156.73 42.63C156.58 43.2 155.59 45.73 155.49 46.12C155.39 46.51 155.08 47.02 154.89 47.3C154.71 47.59 154.28 47.69 153.85 47.84C152.1 48.46 150.64 51.71 151.03 53.44C151.39 55.06 152.91 54.91 154.49 54.86C155.32 54.83 156.45 54.96 156.99 54.81C158.57 54.36 157.91 51.63 157.42 50.49C156.75 48.95 155.34 47.87 155.75 47.8C156.21 47.72 156.37 47.9 156.58 48.06C157.39 48.67 158.93 51.08 159.13 52.06C159.36 53.19 159.14 54.5 160.55 54.1C160.79 53.94 161.16 53.77 160.9 52.7C160.75 51.5 159.4 49.21 158.33 48.56C157.87 48.27 157.22 47.83 157.22 47.83C156.23 47.26 157.94 43.34 159.65 41.45C159.88 41.19 160.47 40.41 160.29 39.91C160.11 39.42 159.49 39.5 159.49 39.5M132.53 78.9C132.82 78.73 132.94 78.08 133.53 78.86C134 79.49 134.58 79.33 134.51 78.91C134.45 78.54 134.08 78.11 133.84 77.88C132.11 76.24 131.41 79.57 132.53 78.9ZM127.96 57.76C128.56 58.11 129.15 57.71 129.51 57.65C129.77 57.6 130 57.61 129.94 57.8C129.87 58.06 129.47 58.14 129.16 58.14C128.62 58.14 128.19 58.28 127.85 57.86C127.68 57.65 127.79 57.66 127.96 57.76ZM123.31 79.97C123.34 80.51 123.8 81.73 123.98 81.88C124.16 82.03 125.14 82.86 125.29 83.14C125.44 83.42 125.88 84.07 126.3 83.86C126.71 83.66 126.92 83.16 126.74 82.91C126.56 82.65 125.5 81.39 125.19 81.05C124.88 80.71 124.7 80.02 124.11 79.73C123.52 79.45 123.3 79.78 123.31 79.96M126.86 52.84C126.37 52.85 125.92 52.98 125.88 53.2C125.84 53.42 125.75 53.67 126.2 54C126.58 54.28 127.53 54.43 127.88 54.58C128.3 54.76 128.09 55.74 127.06 55.5C126.4 55.35 125.45 53.59 125.3 53.82C124.06 56.25 127.6 59.4 128.09 59.8C128.12 60.74 128.18 61.7 127.92 61.82C127.31 62.34 125.36 61.99 125.07 60.88C124.98 60.56 125.08 60.16 124.91 60.01C124 59.23 122.84 60.43 122.65 61.24C122.57 61.58 122.39 62.01 122.27 62.48C121.99 63.49 120.64 64.45 119.52 65.27C118.34 66.14 117.39 66.86 116.87 67.56C115.86 68.54 115.53 70.94 115.58 71.33C115.63 71.72 116.33 72.18 116.2 72.65C115.58 74.87 113.72 76.5 117.28 77.22C117.8 77.33 118.62 77.53 119.37 78.07C120.12 78.61 120.66 79.46 121.87 79.44C123.08 79.42 123.44 79.49 122.98 78.98C122.52 78.46 121.64 78.21 121.77 77.84C121.9 77.48 122.65 77.55 122.91 77.86C123.17 78.17 123.37 78.85 124.43 79.24C125.49 79.63 125.7 79.7 126.47 80.27C127.24 80.84 127.58 81.87 127.91 81.97C128.25 82.07 128.66 82.43 128.84 82.07C129.02 81.71 128.35 80.99 128.19 80.55C128.04 80.11 127.96 79.62 128.29 79.72C128.63 79.82 129.14 80.13 129.24 80.36C129.34 80.59 129.01 80.93 129.55 81.47C130.09 82.01 130.37 82.5 131.4 82.5C132.43 82.5 134.47 82.63 135.56 82.29C137.79 81.6 141.09 80.91 143.53 80.28C144.64 80 145.49 79.89 145.78 79.61C146.06 79.33 147.51 77.44 147.46 77.13C147.41 76.82 147.64 76.38 147.23 76.05C146.82 75.71 146.27 75.66 146.22 75.15C146.17 74.63 146.07 74.48 146.37 74.53C146.68 74.58 146.89 74.74 147.43 74.71C147.97 74.69 148.51 74.81 148.41 74.35C148.31 73.89 148.07 73.55 147.79 72.91C147.51 72.26 146.94 71.08 146.53 70.61C146.44 70.51 146.36 70.42 146.28 70.34C146.52 70.03 146.9 69.85 147.19 70.39C147.47 70.93 147.89 71.58 148.04 71.35C148.19 71.12 148.02 70.16 147.99 69.72C147.96 69.28 148.22 69.18 148.32 69.38C148.42 69.59 148.19 70.52 148.47 71.14C148.76 71.76 149.12 72.56 149.92 72.9C153.21 74.28 154.92 70.09 154.64 69.03C154.69 68.75 154.85 69.47 154.82 69.96C154.79 70.45 154.38 73.71 152.6 75.03C151.46 75.87 149.52 75.93 149.68 77.52C149.73 78.01 150.35 78.34 149.73 78.4C149.11 78.45 148.02 78.17 147.71 78.5C146.92 79.36 148 80.46 149.55 80.59C150.43 80.67 151.6 80.95 151.96 80.48C152.89 79.28 154.45 79.64 154.63 79.35C154.76 79.14 154.78 75.74 154.78 75.74C152.92 75.78 152.88 76.49 151.63 76.9C151.48 76.95 151.3 76.88 151.42 76.62C151.87 75.73 153.91 75.3 154.85 75.18C154.87 74.34 154.9 73.49 154.93 72.65C155.1 72.62 155.27 72.58 155.44 72.55C155.39 73.41 155.34 74.27 155.28 75.13C157.83 75.67 158.58 76.89 158.28 77.02C158.17 77.06 157.95 76.87 156.82 76.3C156.37 76.07 155.99 75.87 155.36 75.76C155.36 75.76 155.22 79.36 155.45 79.72C155.45 80.04 160.52 80.18 160.52 79.19C160.52 78.59 156.26 72.12 156.26 72.12C156.26 72.12 155.98 71.71 156.29 71.71C156.33 71.71 157.27 73.2 159.04 73.57C160.29 73.83 162.5 73.07 162.2 71.15C162.07 70.32 161.38 69.49 161.77 69.49C162.16 69.49 162.57 69.72 162.52 69.36C162.47 69 161.59 68.28 161.51 67.6C161.43 66.93 161.3 66.05 161.1 65.64C160.25 63.95 157.12 66.47 156.06 66.02C154.84 65.5 155.69 64.24 155.4 63.7C155.31 63.53 154.59 63.43 154.16 63.3C153.73 63.17 153.31 62.68 153.24 62.51C153.17 62.34 152.95 61.89 153.01 61.79C153.06 61.68 153.36 61.9 153.6 62.05C153.84 62.19 154.62 62.4 154.9 62.37C155.18 62.34 155.44 62.27 155.49 62.17C155.54 62.06 155.45 61.67 155.22 61.67C154.24 61.6 153.62 61.5 153.26 60.84C153.09 60.56 153.38 60.84 153.81 61.03C154.28 61.23 154.9 61.22 155.4 61.17C155.4 61.17 155.33 60.69 155.17 60.62C155.02 60.54 153.9 60.6 154 60.32C154.11 60.04 155.09 60.15 155.22 60.15C155.35 60.15 156.03 59.99 156.06 60.17C156.08 60.35 156.02 65.43 156.15 65.49C156.28 65.54 156.82 65.26 157.39 64.97C157.96 64.69 161.05 61.69 161.26 61.2C161.47 60.71 161.37 60.53 161.18 60.45C161 60.37 160.61 60.86 160.43 61.2C160.25 61.54 157.13 64.32 156.92 64.17C156.71 64.02 156.71 60.2 156.79 60.04C156.87 59.89 159.64 58.18 159.22 55.27C158.2 55.86 157.39 56.32 155.4 56.4C155.38 56.88 155.39 57.89 155.37 58.37C156.13 58.23 156.3 59.43 155.12 59.36C154.67 59.33 154.12 59.54 153.79 59.09C153.57 58.79 153.55 58.55 153.99 58.74C154.26 58.86 154.56 58.81 154.76 58.77C154.76 58.65 154.76 58.52 154.76 58.39C154.75 57.72 154.73 57.04 154.72 56.37C154.72 56.37 154.48 56.35 154.26 56.29C154.23 56.44 154.17 57.32 154.17 57.32C154.07 57.28 154.09 57.33 153.98 57.3C153.95 57.06 153.84 56.52 153.81 56.28C152.75 56.23 151.53 55.86 150.47 55.22C150.47 57.98 152.08 60.21 152.29 60.55C152.65 61.12 152.63 64.76 152.63 64.76C151.75 64.29 151.61 63.75 149.61 63.75C148.4 63.75 146.59 64.34 146.05 64.65C145.04 65.23 144.18 66.72 145.04 67.54C145.71 68.18 145.89 68.16 145.87 68.68C145.85 69.06 145.62 69.65 145.54 70.05C145.43 70.07 145.3 70.11 145.16 70.19C144.51 70.55 144.26 71.3 143.84 71.2C143.43 71.1 143.45 70.92 143.84 70.48C144.11 70.17 145.32 68.17 144.43 67.98C143.96 67.88 143.42 69.35 143.17 69.61C142.91 69.87 142.63 70.44 142.19 70.28C141.75 70.13 142.63 69.56 142.84 69.2C143.05 68.84 143.46 67.94 143.46 67.6C143.46 67.01 143.78 65.13 142.61 65.22C141.74 65.29 138.69 67.65 139 68.96C139.02 69.27 139 69.48 139.31 69.94C139.62 70.4 139.67 70.79 139.67 71.26C139.67 71.73 139.67 73.04 139.82 73.56C139.97 74.08 140.47 74.77 140.83 75.44C141.19 76.11 141.66 76.42 141.63 76.76C141.6 77.09 141.66 77.59 141.3 77.72C140.94 77.85 136.63 79.19 136.37 79.06C136.11 78.93 135.93 78.83 136.06 78.6C136.19 78.37 136.63 77.68 136.6 77.12C136.55 75.98 135.55 75.81 134.97 75.66C133.62 75.3 132.04 76.51 132.03 76.51C131.54 76.56 131.38 76.61 131.38 76.15C131.38 74.96 130.47 74.52 130.25 75.25C130.29 75.93 130.25 76.44 130.28 76.87C130.3 77.31 129.79 78.07 128.63 77.96C126.2 77.75 125.97 77.46 126.19 77.17C126.38 76.91 126.95 76.67 126.3 76.02C126.02 75.74 124.98 75.56 123.72 75.56C122.46 75.56 122.63 76.22 122.32 76.19C122.17 76.18 121.69 75.84 120.88 75.63C119.59 75.3 117.84 75.02 118.11 74.85C118.32 74.72 118.93 74.54 119.56 74.33C120.18 74.12 120.64 74.41 120.69 73.84C120.74 73.27 120.69 72.76 120.82 72.47C120.95 72.19 121.16 71.8 121.39 72.19C121.62 72.58 121.91 73.22 122.84 73.84C124.02 74.63 128.24 76.51 128.15 73.61C128.13 72.76 127.25 71.78 126.89 71.42C126.53 71.06 128.23 72.01 129.19 72.01C130.15 72.01 131.64 71.24 131.82 71.18C132 71.13 132.31 71.26 132.05 71.62C131.79 71.98 130.89 72.26 130.99 73.32C131.17 75.14 135.89 74.87 136.68 73.99C138.29 72.2 138.03 66.82 137.83 66.72C137.5 66.54 137.75 66.67 136.64 67.08C132.88 68.48 130.98 69.7 126.67 69.19C124.38 68.92 121.35 67.65 121.35 66.8C121.4 66.62 121.4 66.65 122.48 67.19C123.56 67.73 124.03 67.86 125.24 68.22C126.45 68.58 125.89 68.14 125.47 67.81C125.52 67.83 123.36 66.32 122.58 65.44C122.2 65.01 122.38 64.45 122.87 64.84C124 65.75 125.88 67.15 127.74 67.68C128.57 67.89 128.93 67.73 128.62 67.4C127.92 66.65 124.33 65.22 123.25 63.43C123.09 63.17 122.68 62.79 123.09 62.79C123.5 62.79 125.13 64.39 125.59 64.83C126.05 65.27 128.45 66.56 129.61 66.87C131.3 67.32 136.72 65.02 137.6 63.79C137.95 63.3 137.69 62.02 136.53 62.72C135.94 63.08 134.46 64.22 134.25 64.04C134.04 63.86 135.49 62.83 135.49 62.83C137.12 61.6 137.53 62.17 138.63 62.51C139.34 62.73 140.47 62.71 142 62.48C142.77 62.31 143.03 62.62 142.86 62.25C142.69 61.87 142.14 61.58 141.44 61.27C140.17 60.7 138.69 60.42 137.44 61.09C137.18 61.2 136.09 62.04 136.34 61.68C136.6 61.32 136.99 60.92 137.3 60.42C137.73 59.73 138.3 58.44 138.45 56.12C138.36 55.81 138.37 55.05 137.91 55.23C137.22 55.5 137.35 61.46 131.25 63.99C130.72 64.21 130.86 61.49 130.94 61.25C131.02 61.02 131.89 60.68 132.14 60.5C133.76 59.57 135.02 56.78 135.4 55.73C135.79 54.67 135.92 53.05 135.92 52.82C135.92 52.59 135.64 52.23 135.38 52.46C135.12 52.69 134.89 53 134.76 53.62C134.63 54.24 134.01 57.16 133.78 57.41C133.55 57.66 132.67 58.72 131.79 59.24C130.91 59.76 130.09 59.99 130.09 59.99C130.09 59.99 130.37 65.38 129.99 65.51C129.6 65.64 129.27 66.13 129.37 65.61C129.47 65.09 129.45 59.82 129.45 59.82C129.45 59.82 131.33 59.11 131.36 58.83C131.38 58.55 131.27 57.96 131.37 57.52C131.57 56.68 133.57 56.09 133.66 55.45C133.72 55.04 133.27 54.77 132.4 55.02C131.66 55.24 130.65 55.84 129.8 55.77C129.35 55.73 128.1 54.59 129.77 54.51C130.64 54.47 132.04 54.42 132.18 54.42C133.47 53.99 133.2 52.74 132.52 52.72C132.5 52.72 127.91 52.96 126.84 52.9M143.84 82.25C143.33 82.12 143.27 82.56 143.45 82.71C143.63 82.86 144.18 83.3 145.21 83.51C146.67 83.8 148.92 84.14 151.12 83.93C154.43 83.61 155.73 82.72 158.38 82.77C161.24 82.82 163.91 85.57 166.37 85.27C166.78 85.22 167.04 84.93 166.91 84.68C166.78 84.42 166.24 84.37 166.01 84.37C163.7 84.37 161.46 82.17 158.85 81.87C155.67 81.5 153.19 82.98 149.39 83.17C147.08 83.29 145.66 82.68 143.84 82.25ZM149.59 84.92C149.35 85.21 149.71 85.47 150.12 85.67C153.19 87.11 155.27 87.82 158.57 86.59C158.78 86.51 159.24 86.45 159.42 86.81C159.6 87.17 165.11 99.57 165.34 99.91C165.57 100.24 166.16 100.43 166.35 100.09C166.53 99.76 166.14 97.95 165.96 97.64C165.79 97.35 161 88.07 160.42 86.34C160.29 85.96 160.46 85.53 160.88 85.49C161.11 85.46 161.47 85.31 161.47 85.03C161.47 84.75 161.37 84.49 160.98 84.51C160.59 84.54 159.82 84.97 159.59 85.16C155.45 88.38 150.06 84.38 149.59 84.94M154.49 90.67C154.29 91.69 154.19 91.66 154.41 91.91C154.63 92.15 155.16 92.33 155.52 92.41C155.88 92.49 156.8 92.84 157.35 93.09C157.91 93.35 158.47 93.58 158.63 93.58C158.79 93.58 159.38 93.41 159.29 92.97C159.2 92.53 158.94 90.33 158.94 90.03C158.94 89.73 159.03 88.21 159.06 87.9C159.09 87.59 159.16 87.31 159.01 87.28C158.86 87.25 158.25 87.69 157.85 87.95C157.45 88.21 155.97 88.47 155.81 88.47C154.93 88.47 154.7 89.64 154.5 90.66M148.96 85.58C148.8 85.58 145.45 89.09 145.17 89.42C144.89 89.76 145.27 89.94 145.53 90.02C145.79 90.1 147.93 90.54 148.14 90.56C149.14 90.68 150.88 87.45 151.1 87.8C151.2 87.96 150.79 88.63 150.61 89.01C150.43 89.4 150.07 90.22 149.94 90.69C149.81 91.15 150.53 91.21 150.82 91.33C151.1 91.46 151.49 91.41 152.03 91.67C152.57 91.93 152.88 92.24 153.27 92.06C153.66 91.88 153.99 91.26 153.99 90.69C153.99 90.05 154.53 88.45 154.53 88.44C154.48 88.18 154.14 87.98 153.94 87.93C153.73 87.88 152.6 87.36 152.29 87.26C151.98 87.16 149.5 85.79 149.37 85.71C149.24 85.63 148.96 85.58 148.96 85.58ZM145.06 84.48C141.77 83.47 137.66 83.66 134.69 84.54C133.09 85.01 132.56 85.65 131.02 86.49C131.02 86.49 129.26 83.81 128.85 83.75C128.44 83.7 127.61 84.27 127.61 84.27C134.71 92.73 141.82 101.2 148.92 109.66C148.15 110.02 141.8 109.4 141.8 109.4C141.8 109.4 141.28 110.43 141.65 110.54C142.01 110.64 143.92 110.54 145.26 110.8C146.6 111.06 148.8 111.42 149.29 111.26C149.93 111.06 151.39 110.47 150.84 109.58C150.58 109.17 137.46 94.06 137.46 94.06C139.86 94.2 144.82 94.22 149.53 95.79C156.47 98.1 163.23 102.2 163.48 102.12C163.97 102.02 164.11 101.57 164.11 101.33C163.26 100.86 162.44 100.41 161.65 100C162.23 99.81 162.65 99.22 162.65 98.52C162.65 97.67 162.02 96.98 161.24 96.98C160.46 96.98 159.83 97.67 159.83 98.52C159.83 98.73 159.87 98.94 159.94 99.12C159.61 98.95 159.28 98.79 158.95 98.64C159.34 98.38 159.61 97.9 159.61 97.36C159.61 96.54 159 95.87 158.25 95.87C157.5 95.87 156.88 96.54 156.88 97.36C156.88 97.47 156.89 97.58 156.91 97.69C156.72 97.61 156.53 97.52 156.35 97.44C156.7 97.18 156.93 96.74 156.93 96.25C156.93 95.45 156.34 94.8 155.61 94.8C154.88 94.8 154.29 95.45 154.29 96.25C154.29 96.37 154.3 96.49 154.33 96.6C154.1 96.51 153.87 96.42 153.64 96.33C153.95 96.08 154.15 95.67 154.15 95.21C154.15 94.44 153.58 93.81 152.87 93.81C152.16 93.81 151.59 94.43 151.59 95.21C151.59 95.35 151.61 95.49 151.65 95.62C151.48 95.57 151.31 95.51 151.15 95.46C151.4 95.21 151.55 94.86 151.55 94.47C151.55 93.72 151 93.12 150.32 93.12C149.64 93.12 149.09 93.72 149.09 94.47C149.09 94.61 149.11 94.75 149.15 94.87C148.94 94.82 148.74 94.76 148.54 94.71C148.82 94.47 149 94.1 149 93.68C149 92.96 148.47 92.38 147.81 92.38C147.15 92.38 146.62 92.96 146.62 93.68C146.62 93.91 146.67 94.13 146.77 94.31C146.5 94.26 146.22 94.2 145.95 94.15C146.27 93.93 146.47 93.54 146.47 93.1C146.47 92.41 145.96 91.85 145.33 91.85C144.7 91.85 144.19 92.41 144.19 93.1C144.19 93.41 144.29 93.69 144.46 93.91C144.12 93.86 143.79 93.82 143.45 93.78C143.83 93.59 144.09 93.17 144.09 92.69C144.09 92.03 143.6 91.49 142.99 91.49C142.38 91.49 141.89 92.03 141.89 92.69C141.89 93.09 142.06 93.44 142.34 93.66C141.92 93.62 141.49 93.58 141.07 93.54C141.47 93.38 141.75 92.95 141.75 92.46C141.75 91.82 141.28 91.31 140.69 91.31C140.1 91.31 139.63 91.83 139.63 92.46C139.63 92.89 139.85 93.27 140.17 93.47C139.7 93.43 139.23 93.4 138.75 93.36C139.18 93.23 139.49 92.8 139.49 92.3C139.49 91.69 139.04 91.19 138.48 91.19C137.92 91.19 137.47 91.69 137.47 92.3C137.47 92.75 137.72 93.14 138.08 93.31C137.68 93.28 137.27 93.25 136.86 93.21C137.11 93.02 137.27 92.7 137.27 92.34C137.27 91.75 136.84 91.28 136.3 91.28C135.97 91.28 135.67 91.47 135.5 91.75C135.31 91.53 135.11 91.3 134.9 91.06C144.74 90.91 148.86 91.86 158.49 95.4C158.49 95.4 162.02 96.74 162.34 96.77C163.8 96.72 162.73 95.69 160.95 94.99C159.61 94.45 151.5 91.61 146.13 90.83C140.74 90.04 137.37 90.3 134.29 90.35C133.07 88.94 131.86 87.52 131.86 87.45C135.45 84.97 138.74 84.39 143.38 84.78C144.13 84.87 144.53 84.89 144.89 84.82C145.25 84.74 144.98 84.44 145.06 84.46M112 85.98C112.25 86.78 114.32 92.64 114.63 95.63C114.94 98.62 115.3 102.6 115.4 103.94C115.5 105.28 115.6 107.04 115.76 107.6C115.92 108.17 116.79 107.91 116.79 107.91C119.55 106.88 122.17 106.09 125.11 106.09C125.94 106.09 128.35 106 128.61 106C128.87 106 129.07 105.48 128.71 105.12C128.35 104.76 121.07 93.92 120.81 94.44C120.59 94.89 125.35 102.35 126.38 104.34C126.73 105.02 126.72 105.02 125.82 105.06C124.06 105.16 119.41 105.53 117.96 105.93C117.23 106.13 117.4 106.08 117.25 105.05C116.92 102.72 114.1 85.81 112.29 85.52C112.04 85.48 111.87 85.67 111.97 85.97M97.82 98.36C96.76 98.86 94.98 99.68 93.13 100.35C90.21 101.41 87.17 102.14 86.92 102.24C85.83 102.66 94.02 101.52 97.84 99.95C99.21 99.39 100.37 98.85 99.85 98.19C99.33 97.54 98.36 98.11 97.82 98.36ZM84.76 90.72C84.53 91.46 84.45 92.64 83.97 93.52C83.4 94.55 81.47 97.34 81.29 97.54C81.11 97.75 80.89 98.13 80.89 98.13C80.89 98.13 80.39 99.14 81.03 98.89C81.68 98.63 81.98 98.32 82.17 98.06C82.35 97.8 82.48 97.62 82.5 97.85C82.52 97.98 80.95 99.6 82.99 99.6C84.31 99.6 85.39 99.86 85.7 99.68C86.01 99.5 86.42 99.22 86.42 98.52C86.42 97.82 86.34 96.04 86.32 95.4C86.3 94.75 86.14 93.95 86.3 93.8C86.45 93.65 86.87 93.8 86.87 94.26C86.87 94.72 86.95 97.8 87 97.92C87.05 98.05 87.15 98.41 87.39 98.33C87.62 98.25 87.97 97.61 88.02 97.27C88.16 96.26 87.62 94.35 87.28 93.25C87.18 92.91 87.2 92.81 87.33 92.84C87.46 92.87 87.72 93.9 88.13 93.92C88.54 93.95 88.29 93.47 88.23 93.01C88.21 92.82 87.92 92.01 87.79 91.23C87.67 90.5 87.7 89.79 87.62 89.75C87.39 89.65 87.04 89.61 86.88 89.84C86.73 90.07 86.34 90.38 86.08 90.41C85.91 90.43 85.46 90.41 85.16 90.38C84.82 90.36 84.87 90.31 84.75 90.71M99.35 82.87C99.13 82.66 98.97 82.39 98.92 82.04C98.86 81.64 98.27 81.69 97.45 81.72C95 81.8 93.26 83.56 91.33 85C91.02 85.23 90.71 85.46 90.4 85.68C92.65 85.91 94.8 86.24 96.85 86.66C97.77 85.75 98.6 84.41 99.36 82.87M84.59 64.41C84.56 65.35 84.21 65.9 84.96 65.87C91.18 65.64 95.74 65.81 101.71 64.18C102.56 63.95 103.9 63.28 104.14 63.07C104.37 62.86 105.04 62.58 104.04 62.66C101.31 63.54 98.42 64.11 95.55 64.44C92.69 64.77 88.19 64.12 84.87 64.15C84.55 64.15 84.61 64.09 84.61 64.41M92.62 50.62C92.16 51.11 91.74 50.95 92.31 51.96C92.88 52.97 94.04 53.25 93.86 54.1C93.68 54.95 93.11 55.73 93.11 56.27C93.11 56.81 93.37 56.74 93.86 56.99C94.35 57.25 94.43 57.22 94.19 57.61C93.96 58 93.26 58.18 93.29 58.74C93.31 59.31 93.34 59.82 93.88 59.52C94.42 59.21 94.91 58.51 95.09 58.62C95.27 58.72 94.94 59.8 94.96 60.42C95.04 62.31 96.27 61.53 96.43 61.12C96.64 60.58 96.79 59.6 96.79 59.11C96.79 58.62 97.13 58.59 97.23 58.85C97.33 59.11 97.18 59.55 97.75 59.99C98.28 60.4 99.51 60.58 99.32 59.65C99.17 58.93 98.63 59.06 98.74 58.88C98.84 58.7 99.2 58.67 99.64 58.98C100.08 59.29 100.31 59.8 100.62 59.34C100.93 58.88 100.93 58.95 100.23 58.41C99.53 57.87 98.66 57.61 98.06 56.96C97.46 56.32 97.84 55.88 97.13 55.98C96.42 56.08 96.87 56.91 96.33 56.91C95.79 56.91 95.14 56.29 95.17 55.78C95.2 55.26 95.12 54.67 95.45 53.92C95.79 53.17 95.73 52.01 95.4 51.57C95.07 51.13 95.19 50.1 94.27 49.76C93.34 49.42 93 49.81 92.93 50.12C92.85 50.43 92.62 50.61 92.62 50.61M90 49.01C89.9 49.27 89.82 49.16 89.71 50.2C89.33 52.82 88.85 55.26 87.88 57.33C87.04 59.13 85.74 60.71 85.01 61.06C85.06 61.75 85.11 62.44 85.16 63.13C87.62 60.42 89.32 60.34 90.53 49.15C90.43 48.84 89.98 49.02 89.98 49.02M91.9 40.79C91.24 41.41 90.83 41.49 90.51 41.71C90.13 41.98 89.29 42.44 89.54 43.05C89.67 43.36 90.05 43.68 90.96 43.19C91.68 42.8 93.54 41.35 93.54 40.38C93.54 39.5 93.44 39.33 91.9 40.79ZM82.53 41.41C82.43 41.8 81.96 41.98 82.48 42.55C83 43.12 84.55 43.68 85.32 43.68C86.09 43.68 86.66 43.76 87.41 43.7C88.16 43.65 88.44 43.88 88.47 43.29C88.5 42.7 88.34 42.21 88.19 42C88.04 41.79 87.44 41.51 87.16 41.66C86.87 41.82 86.31 42.02 85.66 41.84C85.01 41.66 84.99 41.73 84.55 41.45C84.11 41.17 83.41 40.99 83.13 41.09C82.85 41.19 82.54 41.4 82.54 41.4M70.84 119.14C69.98 119.15 68.57 120.79 68.26 121.25C67.95 121.72 71.56 129.56 72.28 129.82C73 130.08 72.95 129.41 72.95 128.79C72.95 128.17 73.05 121.41 73.16 120.9C73.26 120.38 73.57 120.43 73.11 120.07C72.39 119.51 71.21 119.03 70.84 119.14ZM30.1 116.37C29.66 116.81 29.33 116.56 29.38 117.1C29.43 117.64 29.25 117.94 29.77 117.81C30.29 117.68 30.88 116.96 31.11 116.65C31.34 116.34 31.43 116.3 31.78 115.67C32.13 115.04 31.7 114.79 31.7 114.79C30.95 114.84 30.55 115.92 30.1 116.37ZM42.07 111.17C41.76 111.48 41.06 111.48 41.06 111.88C41.06 112.28 40.77 113.95 41.05 114.05C41.33 114.15 41.52 114.08 41.83 113.88C42.13 113.67 42.16 112.81 42.34 112.58C42.7 112.14 43.74 111.75 43.25 111.43C43.04 111.29 42.22 110.89 42.07 111.17ZM37.61 112.65C37.45 113.01 37.02 113.6 36.56 113.57C36.06 113.53 35.05 113.45 34.08 113.45C33.11 113.45 32.07 113.35 31.53 113.28C30.99 113.2 30.46 112.72 29.46 113.38C28.45 114.04 27.81 115.51 27.62 116.17C27.43 116.83 25.34 122.05 24.76 123.99C24.18 125.92 24.49 125.73 24.02 126.97C23.56 128.21 22.39 129.29 22.05 130.11C21.79 130.71 21.21 131.14 20.93 131.55C20.46 132.23 20.56 134.12 20.58 134.09C20.58 134.09 20.84 133.9 21.17 133.64C21.34 133.4 21.51 133.17 21.62 132.93C21.87 132.38 23.74 129.58 23.94 129.34C24.34 128.89 24.98 126.03 25.36 125.02C25.88 123.62 27.13 120.59 27.4 119.75C27.73 118.69 27.86 118.25 27.97 117.74C28.07 117.23 28.9 115.73 29.34 115C30.23 113.53 34.77 114.56 36.33 114.33C37.21 114.2 37.13 113.87 37.52 113.5C37.72 113.32 37.69 112.96 37.62 112.66M26.7 127.66C26.81 127.57 26.92 127.48 27.01 127.39C27.75 126.73 29.42 125.49 29.45 124.99C29.49 124.49 30.1 122.32 30.61 122.05C31.11 121.78 33.09 119.88 34.36 119.34C35.64 118.8 36.18 118.56 36.64 118.8C37.11 119.03 38.5 120.31 38.77 120.66C39.04 121.01 39.35 121.4 39.7 121.36C39.79 121.36 40.04 121.33 40.37 121.3C40.37 121.3 39.65 117.59 39.29 116.51C38.8 112.41 39.55 109.65 39.47 109.49C39.39 109.33 38.95 109.9 38.77 110.08C38.68 110.17 38.48 110.33 38.29 110.45C38.41 111.72 38.64 114.44 38.64 114.95C38.64 115.62 38.56 116.73 38.2 116.75C37.84 116.78 36.81 116.62 36.16 116.62C35.51 116.62 34.56 116.7 33.71 116.88C32.86 117.06 32.65 117.47 32.26 117.99C31.87 118.51 30.82 119.51 30.53 119.95C30.24 120.39 30.1 120.78 29.97 121.34C29.84 121.91 29.21 121.98 28.9 122.16C28.59 122.34 28 123.53 27.84 123.76C27.69 123.99 26.34 126.06 26.16 126.47C25.98 126.88 26.06 127.3 26.31 127.53C26.38 127.59 26.5 127.63 26.66 127.66M44.79 95.11C44.07 95.34 44.04 95.51 43.53 95.59C41.49 95.9 41.85 95.11 41.39 96.58C40.94 98 38.55 102.59 37.33 104.65C37.16 104.94 35.67 107.45 37.26 105.87C37.69 105.44 38.34 104.79 38.42 104.68C38.55 104.5 39.04 104.3 38.91 104.54C38.78 104.77 37.88 105.97 37.85 106.26C37.82 106.55 37.54 106.62 38.47 106.96C39.4 107.3 40.07 107.53 41.02 107.56C41.98 107.59 43.4 107.59 43.55 107.3C43.71 107.02 43.94 106.6 43.81 105.88C43.68 105.16 43.53 99.77 43.53 99.77C43.53 99.77 44.12 105.19 44.36 105.39C44.59 105.59 45.37 105.16 45.67 104.93C45.98 104.7 46.42 104.18 46.21 103.59C46 103 44.2 98.95 44.15 98.82C44.1 98.69 44.98 99.72 45.29 99.85C45.54 99.96 45.44 96.96 45.33 95.69C45.28 95.17 45.37 95.04 44.8 95.14M42.85 91.04C43.22 91.04 43.52 91.48 43.52 92.02C43.52 92.56 43.22 93 42.85 93C42.48 93 42.18 92.56 42.18 92.02C42.18 91.48 42.48 91.04 42.85 91.04ZM51.32 87.58C47.14 88.05 42.81 88 38.75 87.37C36.09 86.95 36.2 86.94 33.6 88.12C33.2 88.3 32.88 88.48 32.64 88.63C32.68 88.72 32.7 88.81 32.71 88.91C32.73 89.17 32.69 90.45 32.59 91.86C32.88 91.66 33.17 91.45 33.41 91.25C34.03 90.71 34.47 89.96 37.93 89.98C43.93 90.03 46 91.32 51.32 87.58ZM51.42 86.28C51.46 86.06 51.52 85.85 51.58 85.64C48.12 85.24 44.62 84.97 40.81 85.64C36.27 86.55 45.94 88.26 51.41 86.28M51.8 85.04C51.86 84.9 51.93 84.76 52 84.63C41.77 83.31 36.46 84.31 31.35 86.64C31.55 87.01 31.76 87.29 31.94 87.53C35.97 85.37 41.68 83.79 51.8 85.04ZM67.8 80.59C66.6 76.92 59.09 68.5 57.66 68.6C56.37 68.92 53.41 70.14 49.31 70.45C46.07 70.7 38.08 70.83 38.08 69.95V68.59C38.08 68.59 43.14 69.35 48.04 69.19C52.7 69.04 57.21 68.12 57.08 68C56.81 67.77 54.68 67.2 54.41 67.08C54.14 66.96 54.22 66.5 54.95 66.46C55.88 66.41 63.98 69.43 65.29 69.89C66.79 70.43 80.58 72.06 81.46 71.18C81.64 71 81.36 70.17 81.31 69.6C78.8 69.52 71.4 69.22 70.17 69.16C67.77 69.31 56.32 66.1 56.12 65.64C55.93 65.18 56.2 64.63 55.85 64.25C55.5 63.86 48.38 57.4 48.07 56.67C47.76 55.93 47.49 55.35 47.72 55.2C47.95 55.05 48.45 55.35 48.68 55.28C48.91 55.2 49.18 55.16 48.87 54.47C48.56 53.77 44.85 47.77 44.38 47.39C43.92 47 42.75 46.15 42.56 45.92C42.37 45.69 42.83 42.48 42.52 41.55C42.21 40.62 41.86 40.16 41.51 40.12C41.47 40.12 41.43 40.14 41.38 40.19C41.48 41.05 41.38 41.27 41.38 42.01C41.38 42.98 40.86 43.13 40.59 44.53C40.32 45.92 38.09 47.2 37.16 47.9C36.23 48.6 35.86 49.04 36.17 49.08C36.48 49.12 37.37 49.04 37.6 49.59C38.28 51.18 34.91 50.62 34.15 50.42C32.93 50.1 30.94 50.86 29.76 51.04C29.26 51.12 29.33 50.88 29.26 50.27C29.18 49.65 30.69 49.15 31.12 48.84C32.2 48.05 31.5 47 31.64 46.16C31.86 44.91 33.12 45.1 34.02 45.47C34.48 45.66 34.25 46.13 34.06 46.51C33.87 46.9 33.71 47.21 34.06 47.21C34.41 47.21 35.14 47.17 35.61 47.17C36.08 47.17 36.19 46.59 36.42 46.43C36.65 46.28 37.58 46.35 38.01 46.2C38.44 46.04 38.98 45.08 39.09 44.77C39.21 44.46 39.09 43.92 38.98 43.65C38.93 43.54 38.82 43.35 38.65 43.03C37.95 43 36.52 43.03 36.04 42.92C35.54 42.8 34.57 42.69 34.57 42.69C34.57 42.69 34.84 41.45 34.88 40.99C34.92 40.53 34.92 40.29 34.92 39.71C34.92 39.13 35.23 37.2 35.23 36.92C35.23 36.64 34.18 37.62 33.41 37.73C32.64 37.85 30.31 37.73 30.04 37.73C29.77 37.73 30.7 38.7 31.08 39.55C31.47 40.4 31.16 40.44 31.39 41.02C31.62 41.6 31.7 42.26 31.74 42.72C31.78 43.18 31.89 43.34 31.31 43.34C30.73 43.34 29.62 43.42 29.12 43.77C28.62 44.12 28.27 44.36 28.31 44.59C28.35 44.82 29.46 45.08 29.54 45.47C29.72 46.38 29.4 46.9 28.48 46.36C28.48 46.36 27.26 45.35 27.09 45.1C26 43.52 26.24 43.27 25.48 41.89C25.36 41.68 25.39 41.42 25.14 41.42C23.82 41.42 23.97 45.92 24.78 46.93C25.19 47.43 25.73 48.85 25.77 49.04C25.81 49.23 25.87 49.31 25.79 49.58C25.71 49.85 24.05 53.44 24.55 55.61C25.05 57.78 25.87 56.27 27.08 57.59C27.99 58.58 28.27 61.34 28.4 64.12C28.4 64.18 28.4 68.19 28.36 68.24C27.96 68.87 27.31 68.72 27.55 69.84C27.67 70.39 27.74 70.97 28.1 71.65C28.6 72.58 30.19 73.86 30.46 74.01C30.73 74.16 32.07 75 33.3 74.65C34.54 74.3 34.98 74.13 35.72 74.13C36.46 74.13 37.73 73.93 37.73 74.48C37.73 75.03 38.2 76.07 37.65 76.61C37.11 77.15 35.04 78.9 34.77 79.51C34.5 80.13 34.89 80.81 34.23 81.12C32.73 81.82 30.88 81.19 30.58 82.09C30.4 82.66 30.4 83.27 30.5 83.87C35.88 81.33 47.73 81.06 52.74 83.42C52.78 83.43 52.81 83.45 52.85 83.47C53.71 82.6 54.85 82.07 56.1 82.07C56.51 82.07 56.9 82.12 57.28 82.23C60.88 80.78 64.34 80.38 67.76 80.63M29.26 52.45C29.03 53.88 28.6 54.38 28.72 55.97C28.84 57.56 29.03 56.78 29.19 58.41C29.34 60.03 29.15 63.94 29.42 64.26C29.69 64.57 29.92 64.57 30.85 64.61C31.78 64.65 32.63 64.73 32.98 64.65C33.33 64.57 33.79 64.38 33.95 63.76C34.1 63.14 35.11 60.12 35.34 59.58C35.57 59.04 35.15 59 36.39 58.61C37.63 58.22 37.4 58.65 37.9 58.26C38.4 57.87 38.29 57.22 38.25 56.6C38.21 55.98 38.33 55.13 38.17 54.78C38.02 54.43 37.63 54.24 37.28 54.16C36.93 54.08 36.43 54.63 36.35 54.12C36.27 53.62 36.35 53.23 36.23 52.73C36.11 52.23 36.27 51.99 35.65 51.99C35.03 51.99 31.12 51.84 30.19 52.15C29.26 52.46 29.22 52.67 29.26 52.46M29.63 68.6C29.51 68.97 28.59 69.14 28.49 69.53C28.39 69.92 28.37 70.89 28.61 71.2C28.84 71.51 29.25 71.02 29.94 71.82C30.64 72.61 30.87 72.88 31.33 73.41C31.79 73.93 32.28 73.93 32.78 73.58C33.28 73.23 33.57 72.99 34.31 72.35C35.05 71.71 35.82 71.68 35.78 70.95C35.74 70.21 35.74 69.58 35.47 69.19C35.2 68.8 35.43 68.69 34.54 68.76C34.24 68.78 32.61 69.8 32.66 68.16C32.7 66.89 32.43 66.46 31.07 66.77C29.14 67.21 30.23 67.23 29.62 68.61M35.91 68.05C35.91 68.94 36.22 69.87 36.22 69.87C38.85 67.95 40.75 60.78 40.28 56.58C39.78 52.11 39.7 55.25 39.6 56.66C39.32 60.74 36.94 69.01 35.91 68.06M131.29 43.36C131.29 43.36 131.08 42.72 130.44 42.9C129.8 43.07 129.49 43.48 129.47 43.64C129.45 43.8 129.39 46.49 129.33 46.83C129.27 47.18 129.18 47.02 128.61 47.23C128.05 47.44 126.19 48.22 125.47 49.69C124.76 51.16 124.79 51.08 124.74 51.61C124.68 52.13 125.22 52.4 125.46 52.42C128.2 52.65 131.12 52.64 133.72 51.57C134.05 51.43 134.51 51.24 134.46 50.97C134.07 49.13 132.88 48.09 131.07 47.93C130.5 47.88 130.01 47.48 130.74 47.48C132.59 47.48 134.03 47.95 134.85 49.76C135.24 50.61 135.17 51.63 135.23 51.67C135.35 51.77 135.29 51.87 135.75 51.88C137.12 51.94 135.36 46.99 132.19 46.81C131.84 46.79 131.65 46.85 131.45 46.77C131.25 46.69 131.22 46.54 131.22 46.34C131.22 46.14 131.28 43.33 131.28 43.33" fill="black"/>
<path d="M199.25 84.93L175.23 83.11L168.43 82.6L63.65 74.65L59.99 72.88L57.66 74.3L59.1 72.45L46.24 73.87L57.98 78.08L62.2 76.97L199.48 86.56L199.25 84.93Z" fill="black"/>
<path d="M199.12 84.01L168.22 81.66L62.5 74.74L60.88 73.99L58.55 75.41L59.45 74.25L48.15 74.98L58.82 76.9L62.07 76.05L199.51 85.73L199.12 84.01Z" fill="#EFD50F"/>
<path d="M162.48 81.24C162.48 81.24 162.5 81.2 162.48 81.2C162.44 81.2 162.4 81.2 162.36 81.2C162.36 81.2 162.36 81.2 162.36 81.19C162.4 81.19 162.43 81.18 162.47 81.17C162.48 81.17 162.5 81.15 162.5 81.15C162.5 81.14 162.48 81.13 162.47 81.12C162.46 81.12 162.44 81.12 162.42 81.12C162.31 81.14 162.2 81.16 162.08 81.17C161.86 81.19 161.64 81.21 161.42 81.22C161.12 81.23 160.81 81.21 160.51 81.18C160.37 81.17 160.24 81.14 160.12 81.09C159.97 81.02 159.82 80.96 159.68 80.89C159.51 80.81 159.33 80.74 159.21 80.61C159.19 80.59 159.17 80.58 159.15 80.57C159.16 80.59 159.17 80.6 159.18 80.61C159.12 80.58 159.06 80.56 159 80.53C158.87 80.48 158.72 80.47 158.58 80.5C158.52 80.51 158.45 80.52 158.39 80.5C158.32 80.5 158.26 80.49 158.19 80.48C158.02 80.45 157.84 80.44 157.7 80.36C157.68 80.35 157.66 80.35 157.63 80.34C157.63 80.34 157.62 80.36 157.61 80.38C157.61 80.37 157.6 80.36 157.6 80.37C157.57 80.37 157.55 80.37 157.53 80.37C157.51 80.37 157.49 80.37 157.47 80.39C157.43 80.42 157.39 80.45 157.35 80.49C157.32 80.51 157.28 80.54 157.27 80.57C157.23 80.66 157.15 80.75 157.24 80.85C157.19 80.85 157.45 80.9 157.79 80.99C157.97 81.03 158.15 81.08 158.27 81.22C158.31 81.27 158.35 81.31 158.39 81.35H158.38C158.38 81.35 158.44 81.42 158.44 81.43C158.47 81.49 158.52 81.54 158.47 81.61C158.4 81.71 158.36 81.82 158.29 81.92C158.25 81.98 158.21 82.03 158.16 82.08C158.07 82.17 157.98 82.27 157.88 82.35C157.74 82.47 157.59 82.59 157.44 82.71C157.41 82.73 157.42 82.75 157.44 82.77L157.42 82.69C157.42 82.69 156.85 82.74 156.71 82.73C156.68 82.73 156.65 82.73 156.62 82.73C156.56 82.73 156.51 82.73 156.46 82.72C156.4 82.72 156.4 82.83 156.52 82.84C156.53 82.98 156.52 83 156.44 83.18C156.43 83.21 156.41 83.25 156.44 83.28C156.45 83.29 156.44 83.32 156.45 83.34C156.45 83.37 156.46 83.41 156.49 83.43C156.54 83.47 156.6 83.49 156.65 83.52C156.69 83.54 156.73 83.55 156.76 83.56C156.82 83.58 156.87 83.59 156.94 83.56C156.99 83.54 157.05 83.49 157.12 83.55C157.12 83.55 157.15 83.55 157.17 83.55C157.41 83.55 157.65 83.51 157.9 83.57C158.19 83.63 158.48 83.67 158.77 83.68C158.87 83.68 158.96 83.68 159.05 83.64C159.06 83.64 159.09 83.63 159.1 83.64C159.13 83.66 159.14 83.64 159.16 83.64C159.28 83.56 159.4 83.47 159.51 83.39C159.78 83.2 160.05 83.01 160.33 82.82C160.39 82.78 160.44 82.74 160.52 82.77C160.55 82.77 160.58 82.77 160.61 82.77C160.63 82.77 160.65 82.76 160.67 82.75C160.84 82.71 161.01 82.73 161.18 82.75C161.46 82.77 161.74 82.8 162.02 82.83C162.26 82.85 162.77 82.93 162.77 82.9L162.49 81.27L162.48 81.24Z" fill="black"/>
<path d="M169.85 80.3499C168.15 80.1199 164.25 82.0999 160.24 80.3499C160.25 80.3699 160.26 80.3899 160.27 80.3999C159.76 80.0799 159.12 80.4099 158.6 80.0599C158.6 80.0699 158.59 80.0799 158.58 80.0999C158.58 80.0799 158.57 80.0799 158.57 80.0799C158.31 80.0999 158.03 80.4499 158.18 80.7099C158.27 80.7499 159.32 80.9599 159.42 81.3599C159.42 81.3599 159.42 81.3599 159.42 81.3699C159.83 82.0299 158.63 82.6799 158.42 83.1899L158.4 83.0799C158.4 83.0799 157.89 82.9999 157.76 83.2499C157.42 83.9099 158.84 83.7799 159.71 84.1099C160.52 84.1399 161.06 83.2299 161.83 83.1599C164.84 83.3199 170.87 84.5599 173.81 83.9399L169.87 80.3299L169.85 80.3499Z" fill="#EFD50F"/>
<path d="M175.69 83.36C175.54 82.83 175.96 81.68 175.58 80.85C175.22 80.05 172.92 78.7 172.04 77.27C171.71 76.74 171.51 76.06 171.23 75.24C171.05 75.32 170.88 75.42 170.71 75.54C170.58 75.64 170.46 75.75 170.35 75.87C170.9 77.09 171.28 77.98 171.28 78C171.95 79.35 173.93 80.79 174.11 81.04C174.29 81.29 174.64 82 174.64 82.47C174.64 82.94 172.43 84.07 171.65 84.1C170.87 84.12 168.26 84.01 168.26 84.01C168.26 84.01 169.86 84.69 171.3 84.9C172.87 85.12 175.71 83.48 175.68 83.35" fill="black"/>
</svg>
