<svg width="342" height="447" viewBox="0 0 342 447" fill="none" xmlns="http://www.w3.org/2000/svg">
<path d="M342 180.998L340.918 21.8644C154.446 -27.3229 1.24566 21.8644 1.24566 21.8644V25.1425L1.08176 21.8644L0 180.998L0.262245 180.146C0.344196 234.004 16.21 374.354 171.082 446.685C325.462 374.584 341.721 234.906 341.902 180.67L342 180.998Z" fill="#EFD50F"/>
<path d="M334.247 27.0602L333.133 26.7816C172.131 -13.9647 34.7474 19.5207 8.83438 26.6505L7.75262 26.9455L6.93311 148.25L6.98228 180.129C7.04784 230.923 21.1435 351.441 143.809 424.656C143.809 424.656 10.3915 352.244 9.93253 180.129L9.88336 148.266L10.6865 29.2074L11.4077 29.0107C37.0585 22.1268 173.032 -10.1785 330.56 29.191L331.297 29.3713L332.248 170.705L332.215 180.637C333.198 232.611 319.545 276.668 300.713 312.448C261.917 386.155 199.47 424.673 199.47 424.673C242.068 398.333 279.012 355.26 298.91 319.742C331.019 262.425 335.083 208.419 335.182 180.654L335.214 170.705L334.247 27.0766V27.0602Z" fill="black"/>
<path d="M135.794 355.112H144.185V367.241C140.711 369.617 135.908 370.896 131.696 370.896C122.436 370.896 115.683 364.717 115.683 355.899C115.683 347.081 122.436 340.902 131.909 340.902C137.564 340.902 142.104 342.868 145.021 346.425L138.842 351.867C137.039 349.769 134.941 348.72 132.401 348.72C128.139 348.72 125.435 351.457 125.435 355.882C125.435 360.308 128.139 363.045 132.27 363.045C133.45 363.045 134.597 362.848 135.794 362.34V355.096V355.112Z" fill="black"/>
<path d="M171.525 359.816V370.224H161.854V359.701L151.053 341.557H161.248L167.099 351.457L173 341.557H182.342L171.525 359.816Z" fill="black"/>
<path d="M215.336 370.224L215.254 357.161L209.025 367.651H204.764L198.536 357.603V370.224H189.718V341.557H197.667L207.009 356.833L216.106 341.557H224.055L224.137 370.224H215.336Z" fill="black"/>
<path d="M305.925 50.5313C305.925 54.7108 302.663 58.0052 298.484 58.0052C294.304 58.0052 291.075 54.7272 291.075 50.5804C291.075 46.4337 294.288 43.1556 298.516 43.1556C302.745 43.1556 305.925 46.3517 305.925 50.5313ZM304.22 50.5313C304.22 47.2368 301.86 44.7455 298.516 44.7455C295.173 44.7455 292.78 47.286 292.78 50.5641C292.78 53.8421 295.173 56.3826 298.484 56.3826C300.188 56.3826 301.68 55.6942 302.696 54.5797H300.156L298.746 52.3998H297.763V54.5797H295.173V46.5484H298.828C301.106 46.5484 302.45 47.6794 302.45 49.4659C302.45 50.6296 301.958 51.4491 301.057 51.9245L302.762 54.5305C303.679 53.4815 304.237 52.0884 304.237 50.5149M298.664 50.5313C299.451 50.5313 299.877 50.1051 299.877 49.4659C299.877 48.8267 299.434 48.4005 298.664 48.4005H297.763V50.5477H298.664V50.5313Z" fill="black"/>
<path d="M70.1177 245.084L86.9177 214.91H101.603L80.8369 251.853L87.4422 293.681H72.4943L67.2002 259.803L60.4474 293.681H45.8928L61.5128 214.91H76.0674L70.1177 245.084Z" fill="black"/>
<path d="M113.257 294.632H110.471C104.734 294.632 100.587 293.173 98.0303 290.239C95.4734 287.305 94.6375 283.667 95.5226 279.291L101.21 250.608C102.275 245.674 104.144 241.97 106.832 239.544C109.52 237.102 113.47 235.889 118.682 235.889H121.468C126.844 235.889 130.975 237.151 133.843 239.642C136.711 242.15 137.695 245.658 136.826 250.181L130.876 280.028C128.762 289.764 122.894 294.632 113.273 294.632M119.354 246.362C117.141 246.362 115.732 247.805 115.125 250.706L109.438 279.389C108.913 282.356 109.962 283.831 112.618 283.831C114.994 283.831 116.502 282.421 117.109 279.602L122.796 250.706C123.419 247.821 122.272 246.362 119.354 246.362Z" fill="black"/>
<path d="M167.771 214.91L152.151 293.681H138.4L154.003 214.91H167.771Z" fill="black"/>
<path d="M187.751 236.725L176.507 293.681H162.739L173.983 236.725H187.751ZM190.8 221.482L188.423 233.66H174.655L177.048 221.482H190.816H190.8Z" fill="black"/>
<path d="M198.208 236.725H226.53L224.547 246.248L201.125 283.306H218.057L215.942 293.681H185.768L187.882 283.618L211.041 246.887H196.094L198.208 236.725Z" fill="black"/>
<path d="M249.952 235.873H253.263C258.377 235.873 262.196 237.102 264.703 239.577C267.211 242.052 268.031 245.477 267.145 249.853L263.835 266.473H243.183L240.544 279.815C240.101 282.503 241.2 283.847 243.855 283.847C245.887 283.847 247.215 282.47 247.821 279.717L249.673 270.292H263.048L261.065 280.454C260.098 285.322 258.213 288.912 255.443 291.19C252.656 293.484 248.887 294.632 244.133 294.632H240.823C236.233 294.632 232.644 293.403 230.038 290.928C227.432 288.453 226.53 284.929 227.333 280.339L233.414 249.526C235.086 240.429 240.61 235.873 249.952 235.873ZM246.51 249.952L245.051 257.147H252.722L254.181 249.952C254.804 246.92 253.689 245.395 250.87 245.395C249.903 245.395 249.1 245.608 248.493 246.035C247.87 246.461 247.428 246.952 247.166 247.526C246.903 248.083 246.674 248.903 246.51 249.952Z" fill="black"/>
<path d="M277.209 291.977L276.275 236.708H289.371L288.715 269.85L299.565 236.708H312.924L286.715 305.105C285.65 307.99 284.437 310.137 283.077 311.514C281.7 312.891 279.782 313.579 277.324 313.579H263.425L265.408 302.893H271.358C272.587 302.893 273.423 302.679 273.865 302.253C274.308 301.827 274.8 300.991 275.324 299.713L276.39 296.746C276.914 295.124 277.193 293.534 277.193 291.977" fill="black"/>
<path d="M204.453 217.073L203.617 221.269H210.976L210.353 224.219H203.043L201.896 229.989H198.192L201.371 214.123H213.353L212.746 217.073H204.453Z" fill="black"/>
<path d="M219.237 214.123H222.925L219.761 229.989H216.057L219.237 214.123Z" fill="black"/>
<path d="M232.742 217.122H227.661L228.268 214.139H242.101L241.478 217.122H236.43L233.84 229.988H230.169L232.742 217.122Z" fill="black"/>
<path d="M261.999 214.123L258.836 229.989H255.82L249.903 220.072L247.92 229.989H244.281L247.461 214.123H250.493L256.41 224.072L258.377 214.123H261.999Z" fill="black"/>
<path d="M272.21 217.073L271.538 220.515H278.897L278.34 223.383H270.948L270.227 227.038H278.881L278.258 229.989H265.982L269.162 214.123H281.143L280.536 217.073H272.21Z" fill="black"/>
<path d="M283.749 228.497L285.24 225.662C286.699 226.727 288.6 227.317 290.469 227.317C292.485 227.317 293.763 226.612 293.763 225.465C293.763 222.924 285.896 224.285 285.896 219.237C285.896 215.975 288.748 213.861 293.141 213.861C295.271 213.861 297.238 214.336 298.615 215.221L297.238 218.024C296.042 217.204 294.501 216.794 292.927 216.794C290.797 216.794 289.551 217.614 289.551 218.745C289.535 221.351 297.418 219.991 297.418 224.858C297.418 228.153 294.517 230.251 290.108 230.251C287.519 230.251 285.076 229.481 283.749 228.481" fill="black"/>
<path d="M301.581 228.497L303.073 225.662C304.532 226.727 306.433 227.317 308.302 227.317C310.318 227.317 311.596 226.612 311.596 225.465C311.596 222.924 303.729 224.285 303.729 219.237C303.729 215.975 306.581 213.861 310.973 213.861C313.104 213.861 315.071 214.336 316.447 215.221L315.071 218.024C313.874 217.204 312.334 216.794 310.76 216.794C308.629 216.794 307.384 217.614 307.384 218.745C307.367 221.351 315.251 219.991 315.251 224.858C315.251 228.153 312.35 230.251 307.941 230.251C305.351 230.251 302.909 229.481 301.581 228.481" fill="black"/>
<path d="M185.997 304.138H180.916L181.523 301.155H195.356L194.733 304.138H189.685L187.095 317.005H183.44L185.997 304.138Z" fill="black"/>
<path d="M203.781 304.089L203.092 307.547H210.452L209.894 310.399H202.502L201.781 314.071H210.435L209.829 317.005H197.536L200.716 301.155H212.697L212.091 304.089H203.781Z" fill="black"/>
<path d="M227.415 313.612H220.023L217.958 317.005H214.041L224.301 301.139H227.923L231.824 317.005H228.153L227.399 313.612H227.415ZM226.809 310.825L225.465 304.712L221.728 310.825H226.809Z" fill="black"/>
<path d="M257.918 301.155L254.771 317.005H251.312L253.181 307.58L247.133 315.333H245.494L242.232 307.498L240.331 317.005H236.889L240.052 301.155H243.052L247.018 311.022L254.771 301.155H257.918Z" fill="black"/>
<path d="M92.6706 149.512H90.7366L87.8027 138.957H89.7368L92.6706 149.512Z" fill="black"/>
<path d="M93.0805 148.66H91.1465L94.0803 138.105H96.0144L93.0805 148.66Z" fill="black"/>
<path d="M91.9495 151.02C87.9994 151.02 84.7869 147.48 84.7869 143.137C84.7869 138.793 87.9994 135.253 91.9495 135.253C95.8995 135.253 99.1121 138.793 99.1121 143.137C99.1121 147.48 95.8995 151.02 91.9495 151.02ZM91.9495 135.613C88.1961 135.613 85.1475 138.99 85.1475 143.137C85.1475 147.283 88.1961 150.66 91.9495 150.66C95.7029 150.66 98.7515 147.283 98.7515 143.137C98.7515 138.99 95.7029 135.613 91.9495 135.613Z" fill="black"/>
<path fill-rule="evenodd" clip-rule="evenodd" d="M256.869 66.2496C256.23 67.4625 255.164 70.1177 254.656 72.019C254.148 73.9202 252.82 75.1823 252.116 76.0838C251.427 76.9688 249.509 77.8539 249.509 77.8539C249.509 77.8539 249.641 78.2964 249.313 78.739C248.067 80.3125 243.675 84.115 244.166 87.4258C244.248 87.9667 244.674 88.9501 245.232 89.114C243.871 92.7035 248.657 99.4891 245.838 101.964C243.888 103.669 240.282 104.111 237.807 103.324C237.2 103.128 235.234 102.03 235.053 101.456C234.857 100.882 232.709 99.2432 232.07 98.981C231.447 98.7351 227.383 97.4567 227.383 97.4567C227.383 97.4567 228.137 93.9656 228.464 92.7035C229.005 90.2941 227.727 84.197 226.055 81.8531C225.924 81.4762 222.695 77.1655 222.367 76.5263C221.449 74.6742 223.4 74.0514 221.63 73.4941C221.351 73.4121 221.056 73.2482 220.925 72.9696C220.613 72.3304 220.859 71.3142 220.859 71.3142C220.859 71.3142 223.941 68.3311 224.121 67.9869C224.318 67.6427 225.416 67.1019 224.252 65.6759C223.072 64.25 219.302 61.4964 215.303 61.8734C209.37 62.447 207.124 65.2334 206.682 65.7415C206.239 66.2496 206.616 66.6921 206.846 67.2002C207.075 67.7083 209.861 73.281 210.074 73.7072C210.304 74.1169 210.304 74.9364 210.107 75.2642C207.96 76.8705 205.092 78.2309 203.797 83.6397C203.633 83.8691 203.223 83.738 202.682 84.0494C202.142 84.3609 202.814 90.0483 202.895 90.5564C202.994 91.0645 204.158 94.2442 203.846 94.7359C203.535 95.244 200.994 97.5223 200.617 98.604C200.24 99.6858 200.748 100.948 199.863 101.39C198.978 101.833 193.651 106.717 193.012 106.783C192.996 106.783 192.947 106.783 192.897 106.783C192.34 107.389 189.914 109.684 189.111 110.946C188.308 112.208 186.833 116.404 186.571 118.387C186.396 119.709 186.03 120.54 185.473 120.878C184.62 121.387 180.441 119.813 178.753 119.059C177.064 118.305 175.622 117.912 175.704 117.371C175.786 116.879 181.834 117.781 181.834 117.125C181.834 116.879 181.244 116.322 180.064 115.65C178.884 114.978 170.131 106.34 169.869 105.455C169.328 103.57 175.376 106.586 175.868 106.898C177.474 107.914 181.752 109.176 183.834 109.225C185.915 109.274 186.538 108.717 186.03 108.258C185.522 107.799 184.079 107.455 182.899 107.111C181.326 106.668 173.409 105.078 174.18 102.62C174.426 101.817 176.081 102.915 176.851 103.292C177.605 103.669 180.703 104.734 182.047 105.062C183.407 105.406 186.653 105.865 188.226 105.865C189.128 105.865 190.078 105.783 190.963 105.603C189.931 104.865 188.701 103.931 187.8 103.111C184.932 103.538 180.457 102.98 178.081 101.292C175.704 99.6038 179.982 100.112 180.408 100.145C181.375 100.227 184.981 101.374 186.03 101.325C186.194 101.325 186.325 101.292 186.472 101.243C186.44 100.145 186.456 97.8665 185.604 97.0797C184.653 96.1947 171.393 83.3119 171.393 83.3119C171.393 83.3119 163.969 76.9033 162.838 76.2149C161.707 75.5265 158.396 74.1825 157.445 73.4285C156.495 72.6746 155.298 70.6422 155.347 69.4293C155.38 68.8229 156.134 66.7085 155.97 64.6761C155.724 61.7586 154.446 58.9559 153.757 60.4638C153.38 61.2997 152.676 63.4468 151.102 64.7908C149.84 65.8726 147.562 66.0365 145.644 65.6595C144.251 65.3973 144.53 60.6113 146.431 57.9233C146.66 57.6119 144.054 58.0216 143.382 58.0544C142.71 58.0872 140.694 57.5135 140.53 57.5791C138.58 57.2021 138.613 62.4306 138.465 63.201C138.432 63.3649 137.17 62.7257 137.105 63.3813C137.039 64.0533 137.613 65.0531 137.4 65.5284C137.17 66.0037 136.384 66.0037 136.154 65.8398C135.941 65.6759 134.04 60.9555 133.909 60.4146C133.778 59.8737 133.368 58.6445 132.925 58.792C132.483 58.9559 132.204 61.2014 131.778 62.2831C131.368 63.3649 131.614 65.6104 131.991 66.4626C132.368 67.3149 133.286 68.3311 133.286 68.7573C133.286 69.1834 133.089 69.167 132.745 69.6751C132.401 70.1832 127.484 74.92 127.664 75.9526C127.861 77.0016 129.533 77.2147 129.319 78.2964C129.09 79.3782 128.779 79.7552 127.631 80.7058C126.484 81.6565 124.976 81.722 124.845 83.0824C124.714 84.4428 124.632 89.1632 124.747 89.6057C124.878 90.0483 125.222 90.0483 125.697 90.5236C126.172 90.9989 127.156 91.507 127.156 92.179C127.156 92.851 127.156 94.4081 126.943 94.9654C126.713 95.539 126.746 94.6867 126.091 95.7193C125.419 96.7683 125.714 97.4075 125.779 97.8829C125.845 98.3582 126.009 98.391 126.058 98.7024C126.123 99.0138 126.058 100.768 126.058 100.768C126.058 100.768 125.074 102.357 125.255 103.308C125.287 103.472 125.32 103.619 125.369 103.783C126.222 102.8 126.664 103.21 127.353 103.242C128.025 103.292 128.074 103.8 128.533 103.882C128.992 103.964 128.877 103.324 128.992 102.57C129.123 101.817 128.697 101.603 128.221 101.259C127.762 100.915 127.008 100.833 126.844 100.243C126.681 99.653 126.91 98.604 126.959 98.227C127.008 97.8501 130.352 97.9812 130.352 97.8665C130.352 97.7517 130.729 95.2276 130.45 94.9982C130.172 94.7687 128.5 94.9982 127.91 94.9654C127.32 94.9162 127.828 94.5064 127.877 93.6542C127.91 92.8019 128.123 91.9168 128.762 90.8678C129.401 89.8024 130.5 85.7868 130.532 85.1968C130.565 84.6067 130.286 84.1806 129.565 84.0494C128.844 83.9183 128.041 83.0824 127.959 82.394C127.877 81.722 128.631 81.2139 129.139 80.8697C129.647 80.5419 130.958 78.8373 131.712 77.9523C132.466 77.0672 132.139 77.2802 132.089 76.8869C132.057 76.5099 131.286 76.4607 130.827 75.8379C130.368 75.1987 130.876 75.0348 131.172 74.4775C131.467 73.9202 132.86 73.3302 133.581 72.2812C134.302 71.2158 134.122 71.6092 135.351 71.6092C135.351 71.6092 140.022 72.3959 141.924 72.4779C143.825 72.5598 143.546 72.6582 143.825 73.3302C144.169 74.1497 144.677 74.2153 142.596 74.8053C142.006 74.9692 141.874 75.2642 141.71 75.5593C141.547 75.8543 141.481 80.2141 141.481 80.4436C141.481 80.673 141.497 81.0828 142.317 81.2303C143.136 81.3778 144.694 82.2465 144.939 83.148C145.185 84.0494 144.562 84.4592 144.202 84.9509C143.841 85.4426 142.219 85.1148 141.629 85.2132C139.268 85.541 137.793 89.95 136.646 93.8181C136.498 94.3098 136.007 95.5554 135.597 95.6702C135.171 95.8013 134.417 95.1621 133.696 94.9162C132.974 94.6704 131.925 94.7851 131.794 95.0965C131.663 95.3915 131.712 95.3915 131.63 96.0307C131.549 96.67 131.762 97.8829 132.139 97.932C132.516 97.9812 133.286 98.014 133.958 98.0959C134.63 98.1779 134.548 98.309 134.892 99.1121C135.236 99.9152 134.548 103.98 134.548 103.98C134.548 103.98 135.056 103.898 135.728 103.849C136.416 103.8 136.171 101.292 136.089 100.014C135.99 98.604 137.498 98.4073 138.006 99.8497C138.219 100.44 138.006 101.079 138.039 102.095C138.072 103.111 137.81 105.029 137.81 106.045C137.81 107.061 137.793 108.619 137.498 109.258C137.203 109.897 136.154 110.225 135.597 110.356C135.04 110.487 135.04 110.274 135.007 109.815C134.958 109.34 135.81 107.996 136.236 106.635C136.662 105.275 135.941 105.078 135.089 104.767C134.237 104.472 134.122 105.275 133.827 106.291C133.532 107.307 132.565 107.897 131.712 108.356C130.877 108.815 130.696 108.569 130.188 108.274C129.68 107.979 127.566 105.111 127.058 104.931C126.549 104.75 126.091 105.308 125.877 105.717C125.877 105.849 125.894 105.963 125.877 106.078C125.812 106.766 126.32 108.356 126.697 109.438C127.074 110.52 126.828 111.716 127.402 111.782C127.975 111.847 129.369 111.651 129.942 112.224C130.516 112.798 132.614 112.224 132.614 112.224C132.614 112.224 133.499 111.405 134.073 111.405C134.548 111.405 135.302 111.011 135.597 111.618C137.17 113.634 135.777 125.959 135.449 129.205C135.318 130.483 134.646 130.073 134.548 128.893C134.318 125.828 134.089 122.747 133.86 119.682C115.535 121.6 106.848 116.65 97.0633 112.454C105.324 118.158 110.864 125.074 115.404 132.417C120.338 133.22 125.222 134.728 130.172 136.482C133.974 137.564 137.465 139.137 137.842 139.465C138.219 139.776 136.695 139.973 136.384 139.842C133.827 138.826 124.566 135.974 115.355 134.892C107.242 133.942 99.0629 134.532 97.178 136.466C98.1615 137.433 98.9154 138.646 99.3744 140.039C104.324 140.645 109.34 141.039 114.109 141.284C114.388 140.465 115.142 139.891 116.06 139.891C117.027 139.891 117.83 140.547 118.043 141.448C125.91 141.711 132.811 141.596 137.203 141.432C137.351 141.399 137.482 141.366 137.58 141.366C138.727 141.317 139.318 140.58 139.662 140.825C140.498 141.399 140.071 142.006 139.826 142.628C139.531 143.366 139.908 144.038 140.907 143.808C142.12 143.53 141.825 142.776 141.481 142.087C141.317 141.76 140.94 141.481 141.006 140.924C141.219 139.236 143.35 139.449 144.366 139.186C147.709 138.35 154.134 133.696 157.167 131.86C158.773 130.893 159.707 131.532 161.936 131.532C162.854 130.68 164.083 130.172 165.181 130.139C165.345 129.696 165.526 129.254 165.689 128.828C164.575 128.041 163.313 126.828 164.493 126.189C164.772 126.041 165.509 126.336 165.903 126.549C166.001 126.599 166.181 126.681 166.411 126.795C167.837 122.812 169.017 119.01 170 116.535C170.262 115.863 171.361 115.879 171.18 117.043C170.836 119.42 169.738 123.419 168.23 127.631C168.836 128.09 169.869 129.483 168.476 129.844C168.197 129.91 167.837 129.844 167.443 129.729C167.312 130.073 167.181 130.401 167.05 130.729C167.378 131.008 167.64 131.401 167.787 131.909C168.754 135.171 166.46 136.613 164.477 136.416C163.247 138.809 161.952 140.907 160.658 142.35C169.131 144.267 176.474 147.119 182.703 150.561C180.457 137.58 173.934 124.812 172.655 120.19C172.442 119.436 173.114 119.305 173.704 119.649C178.277 128.418 181.588 137.76 183.866 146.07C188.095 161.51 186.21 173.524 187.997 178.13C188.767 179.802 197.585 177.064 199.208 176.605C202.846 175.589 206.337 175.163 208.288 175.163C210.238 175.163 212.271 175.671 213.107 176.933C213.959 178.195 213.189 178.195 213.533 178.966C214.156 180.375 221.269 178.343 222.334 178.113C225.203 177.523 226.219 177.769 226.219 177.769C224.072 174.409 215.565 159.117 206.649 146.972C198.831 136.318 190.373 128.5 190.373 127.697C190.373 127.189 190.799 127.353 191.389 127.533C195.897 127.238 232.546 179.408 230.726 180.392C230.726 181.162 230.136 181.162 229.464 181.064C228.792 180.965 226.252 180.31 225.153 179.965C224.055 179.638 222.285 180.146 221.269 180.736C218.22 182.506 214.877 182.178 211.451 181.916C210.353 181.834 210.353 181.064 210.697 180.556C211.041 180.047 211.795 179.212 210.861 178.179C209.583 176.786 203.502 177.376 199.109 178.523C194.241 179.802 190.996 181.736 189.39 182.408C188.374 182.834 186.685 181.818 185.833 181.064C184.391 180.293 185.03 167.411 183.325 154.495C170.049 146.939 162.198 143.186 145.677 141.579C145.349 141.694 145.005 141.792 144.644 141.858C142.874 142.202 142.874 141.989 143.087 142.628C145.07 148.939 136.793 147.037 138.432 143.513C138.514 143.333 138.514 143.218 138.449 143.153C137.203 143.825 126.697 143.366 117.863 142.907C117.518 143.546 116.83 143.989 116.06 143.989C115.191 143.989 114.47 143.464 114.158 142.71C111.618 142.579 109.405 142.448 107.832 142.383C106.602 142.317 102.03 142.153 105.75 144.628C110.634 147.201 127.041 156.855 127.156 157.527C127.32 158.248 109.946 149.447 107.881 148.234C105.816 147.005 100.686 143.497 99.8661 143.087C99.8661 147.939 96.3258 151.889 91.9659 151.889C88.3109 151.889 85.2459 149.135 84.3281 145.398C83.9183 145.546 83.6069 145.693 83.5085 145.841C82.0826 147.922 75.6576 149.398 73.1499 149.398C73.0515 149.398 72.9368 149.398 72.8384 149.381C73.2482 149.988 73.4777 150.758 73.4777 151.577C73.4777 153.593 72.0353 155.233 70.2488 155.233C68.4622 155.233 67.0199 153.593 67.0199 151.577C67.0199 150.742 67.2658 149.988 67.6755 149.365C67.5608 149.299 67.3313 149.266 66.9379 149.266C65.7087 149.266 63.6435 149.217 62.9551 149.725C59.9393 151.987 57.0054 150.66 55.3008 151.84C53.9077 152.807 55.0714 151.545 53.3504 153.889C53.7601 156.658 55.0058 160.15 55.3992 161.92C55.9073 164.214 57.8085 172.606 58.6936 174.393C60.2507 177.507 61.021 176.622 62.365 179.048C63.6107 179.49 64.6761 178.097 65.7742 177.491C66.8724 176.9 71.6092 177.835 73.6416 177.835C75.674 177.835 89.114 179.097 89.7041 179.277C90.2941 179.441 93.5886 179.113 94.277 178.933C94.949 178.769 93.0969 177.589 93.0969 177.589C92.6543 177.228 92.8182 176.589 93.605 176.491C93.605 176.491 96.4733 176.065 97.3256 176.065C98.1779 176.065 98.5057 175.638 98.5876 175.13C98.6696 174.622 97.9156 173.18 97.4075 173.098C96.8994 173.016 95.8832 174.114 94.6212 174.36C90.7694 175.13 92.1462 166.296 93.605 163.542C93.605 163.542 94.6212 163.247 95.2932 163.755C95.9652 164.264 95.8832 165.87 95.9324 166.509C95.9816 167.148 95.3751 167.984 95.2932 169.213C95.2112 170.443 96.3421 169.853 97.2764 169.722C98.2106 169.59 99.2104 168.279 100.276 168.197C101.341 168.115 100.751 170.344 100.8 171.197C101.128 177.802 104.783 182.899 105.39 187.226C105.488 187.931 103.554 190.816 102.341 190.816C101.44 190.816 99.5055 187.325 98.6696 187.177C97.6698 187.013 97.5386 187.997 97.3583 188.882C97.1125 190.095 78.0178 183.784 73.7071 186.718C72.9368 187.243 71.3142 189.587 71.9862 192.668C71.9862 193.684 70.1177 194.7 70.1177 194.7C70.216 195.815 70.3143 196.946 70.4127 198.077C71.1011 197.765 80.4272 195.667 82.2629 195.028C84.0986 194.389 87.4094 193.766 90.6383 194.143C93.8672 194.52 102.57 198.142 102.636 199.027C102.702 199.912 102.062 200.421 102.636 201.568C103.21 202.715 107.143 205.879 108.094 208.288C109.045 210.697 112.405 215.713 113.175 217.417C113.929 219.122 115.207 220.515 115.519 221.351C115.83 222.171 115.519 222.679 116.404 222.613C117.289 222.547 119.321 220.45 119.961 219.827C120.6 219.187 135.187 204.862 135.63 204.42C136.072 203.977 136.711 203.781 136.269 202.83C135.826 201.879 133.155 198.962 133.548 197.503C133.745 196.782 134.089 196.012 134.482 195.422C133.351 193.848 127.926 183.473 128.598 174.917C128.68 173.311 130.155 171.836 130.762 171.459C131.352 171.082 131.106 170.656 131.27 168.886C131.434 167.099 132.942 164.788 135.072 165.165C140.252 163.969 151.348 162.461 154.446 157.298C156.806 153.364 155.085 151.938 160.15 152.61C161.461 152.774 162.1 154.167 162.428 154.561C162.772 154.937 162.346 157.216 162.051 157.724C160.51 160.723 150.774 164.591 143.874 166.165C139.022 167.279 137.269 167.492 134.859 168.41C134.302 168.623 134.4 169.59 134.351 169.967C134.302 170.344 133.761 170.689 134.269 171.033C134.777 171.377 136.302 172.213 136.81 172.901C137.318 173.573 136.892 173.754 136.646 175.18C136.384 176.622 135.367 177.13 134.695 177.294C134.023 177.474 133.433 178.31 133.433 178.818C133.433 179.326 132.499 180.342 132.499 180.769C132.499 185.686 134.515 190.259 136.236 194.75C136.695 194.897 137.302 195.11 137.941 195.29C136.007 190.947 133.614 186.145 133.319 181.408C133.204 179.392 134.105 180.506 134.302 181.686C135.187 187.161 136.138 188.98 139.088 194.078C139.203 194.307 140.203 195.061 141.252 195.831C143.169 195.946 146.791 196.307 147.644 196.307C148.66 196.307 149.676 195.733 150.25 195.356C150.823 194.979 152.348 195.995 152.921 196.88C153.495 197.765 153.053 199.044 153.184 199.617C153.315 200.191 154.331 200.126 155.085 200.191C155.839 200.257 195.241 200.191 195.241 200.191C195.241 200.191 196.897 200.06 196.897 201.076C196.897 201.814 196.716 204.616 196.634 206.108C196.569 207.288 197.028 207.091 197.585 207.042C197.978 207.009 198.454 206.96 198.945 206.862C200.142 206.616 200.978 205.977 201.732 205.977C202.486 205.977 203.83 205.026 203.764 204.272C203.764 204.272 202.83 200.257 204.469 200.24H277.881C278.996 191.439 281.962 184.03 287.453 177.982C288.502 176.819 289.19 176.917 287.732 176.54C286.24 176.147 283.208 175.671 283.11 175.098C282.978 174.278 284.503 173.77 285.404 173.573C286.289 173.377 286.486 172.246 286.224 171.41C285.978 170.59 282.749 158.068 280.782 157.101C278.389 155.937 278.258 157.707 275.98 155.282C271.948 151.004 273.325 143.251 275.128 142.825C275.931 142.415 276.98 142.006 277.668 142.792C277.979 143.169 280.52 146.152 281.028 146.529C281.536 146.906 287.486 151.61 288.322 152.561C292.763 157.691 290.321 163.362 298.631 164.05C300.451 164.198 302.106 164.132 302.598 164.165C307.761 164.641 308.105 167.804 312.301 169.558C313.055 169.869 313.694 170.131 314.202 170.066C314.71 170 308.678 165.558 308.367 165.181C308.056 164.804 307.859 164.034 308.433 164.034C309.006 164.034 324.102 174.376 324.659 174.311C324.348 172.541 300.139 156.609 299.926 155.986C299.205 155.331 298.746 154.184 299.746 154.151C301.024 154.184 325.937 172.803 326.577 172.541C327.216 172.295 299.484 152.626 298.287 150.84C295.55 147.988 290.829 137.269 290.584 136.384C290.338 135.499 291.042 133.565 290.403 132.171C289.797 130.827 285.945 128.549 284.47 126.156C283.896 125.238 283.569 124.058 283.06 122.616C281.602 118.436 279.897 114.06 277.979 111.962C276.078 109.864 272.407 106.947 268.817 105.521C267.457 105.275 266.719 103.554 268.407 103.144C269.67 102.767 275.39 104.98 277.291 104.914C282.88 104.734 279.881 94.8506 278.881 92.2938C277.734 89.8024 274.914 84.869 276.34 82.2137C277.291 80.4436 277.553 79.3618 277.045 77.2639C276.242 73.576 263.343 56.694 256.951 66.266M287.224 198.945C284.568 176.737 309.416 168.984 311.334 196.716C308.17 199.568 304.991 202.437 301.827 205.288C301.827 205.288 301.598 197.995 299.451 195.176C296.32 193.602 295.763 203.551 295.681 206.436C292.862 203.944 290.059 201.453 287.24 198.945M279.782 139.547C281.913 141.956 290.108 148.496 290.256 148.742C290.42 149.037 291.19 149.496 291.272 150.692C291.354 151.872 291.321 152.463 292.206 153.02C293.091 153.561 294.452 154.2 294.402 154.593C294.353 154.97 293.517 155.986 293.976 157.052C294.583 158.461 296.5 159.002 297.566 158.33C298.385 157.806 298.664 156.15 297.992 155.741C296.894 155.085 295.714 155.151 296.255 154.479C296.796 153.807 298.189 154.61 298.32 153.839C298.451 153.069 295.533 151.348 295.107 150.971C294.681 150.594 280.733 138.793 280.274 138.58C279.471 138.219 278.963 138.646 279.782 139.58M284.224 139.055C284.404 140.153 285.027 139.924 285.47 140.055C285.912 140.186 286.175 140.071 286.273 140.498C286.371 140.924 286.65 141.956 287.027 142.448C288.076 143.858 290.026 142.727 289.01 141.268C288.387 140.383 288.633 140.465 288.42 139.596C288.207 138.727 288.174 138.285 287.797 137.859C287.076 137.056 284.027 137.941 284.224 139.039M265.605 107.668C265.949 109.946 266.195 112.355 266.949 112.749C267.719 113.126 268.981 113.126 268.981 114.027C268.981 114.929 270.112 119.813 271.915 122.436C273.734 125.058 275.701 127.549 276.422 128.139C277.144 128.729 278.094 128.975 278.307 130.795C278.52 132.614 279.225 133.942 279.471 134.614C280.225 136.597 281.831 138.105 284.044 137.072C284.765 136.728 285.404 136.564 286.699 136.515C288.01 136.482 288.863 135.761 288.863 134.958C288.863 134.155 288.273 132.974 287.978 132.548C287.682 132.122 284.339 129.696 283.224 127.435C283.224 127.287 277.652 114.339 275.16 111.913C272.177 109.012 265.146 104.505 265.605 107.684M261.409 64.7089C260.737 64.7417 259.852 65.2989 259.557 65.7251C259.262 66.1512 257.147 68.9376 256.885 69.8718C256.639 70.8061 255.017 74.9528 254.853 75.592C254.689 76.2313 254.181 77.0672 253.869 77.5261C253.574 78.0014 252.87 78.1653 252.165 78.4112C249.296 79.4274 246.903 84.7542 247.543 87.5897C248.133 90.245 250.624 89.9991 253.214 89.9172C254.574 89.868 256.426 90.0811 257.311 89.8352C259.901 89.0977 258.819 84.6231 258.016 82.7546C256.918 80.2305 254.607 78.4603 255.279 78.3456C256.033 78.2145 256.295 78.5095 256.639 78.7718C257.967 79.7716 260.491 83.7216 260.819 85.3279C261.196 87.18 260.835 89.3271 263.146 88.6715C263.54 88.4093 264.146 88.1306 263.72 86.3769C263.474 84.41 261.261 80.6566 259.508 79.5913C258.754 79.116 257.688 78.3948 257.688 78.3948C256.066 77.4605 258.868 71.0355 261.671 67.9378C262.048 67.5116 263.015 66.2332 262.72 65.4137C262.425 64.6105 261.409 64.7417 261.409 64.7417M217.221 129.319C217.696 129.041 217.893 127.975 218.86 129.254C219.63 130.286 220.581 130.024 220.466 129.336C220.368 128.729 219.761 128.025 219.368 127.648C216.532 124.96 215.385 130.418 217.221 129.319ZM209.73 94.6703C210.714 95.244 211.681 94.5884 212.271 94.4901C212.697 94.4081 213.074 94.4245 212.976 94.7359C212.861 95.1621 212.205 95.2932 211.697 95.2932C210.812 95.2932 210.107 95.5226 209.55 94.8343C209.271 94.4901 209.452 94.5064 209.73 94.6703ZM202.109 131.073C202.158 131.958 202.912 133.958 203.207 134.204C203.502 134.45 205.108 135.81 205.354 136.269C205.6 136.728 206.321 137.793 207.009 137.449C207.681 137.121 208.026 136.302 207.731 135.892C207.436 135.466 205.698 133.401 205.19 132.843C204.682 132.286 204.387 131.155 203.42 130.68C202.453 130.221 202.092 130.762 202.109 131.057M207.927 86.6063C207.124 86.6227 206.387 86.8358 206.321 87.1964C206.255 87.557 206.108 87.9667 206.846 88.5076C207.468 88.9665 209.025 89.2124 209.599 89.4582C210.287 89.7533 209.943 91.3595 208.255 90.9661C207.173 90.7203 205.616 87.8356 205.37 88.2126C203.338 92.1954 209.14 97.3584 209.943 98.014C209.992 99.5547 210.091 101.128 209.665 101.325C208.665 102.177 205.469 101.603 204.993 99.7841C204.846 99.2596 205.01 98.604 204.731 98.3582C203.24 97.0797 201.338 99.0466 201.027 100.374C200.896 100.931 200.601 101.636 200.404 102.407C199.945 104.062 197.733 105.635 195.897 106.979C193.963 108.405 192.406 109.586 191.553 110.733C189.898 112.339 189.357 116.273 189.439 116.912C189.521 117.551 190.668 118.305 190.455 119.076C189.439 122.714 186.39 125.386 192.225 126.566C193.078 126.746 194.422 127.074 195.651 127.959C196.88 128.844 197.765 130.237 199.749 130.205C201.732 130.172 202.322 130.286 201.568 129.451C200.814 128.598 199.372 128.189 199.585 127.582C199.798 126.992 201.027 127.107 201.453 127.615C201.879 128.123 202.207 129.237 203.944 129.877C205.682 130.516 206.026 130.631 207.288 131.565C208.55 132.499 209.107 134.187 209.648 134.351C210.206 134.515 210.878 135.105 211.173 134.515C211.468 133.925 210.369 132.745 210.107 132.024C209.861 131.303 209.73 130.5 210.271 130.663C210.828 130.827 211.664 131.335 211.828 131.712C211.992 132.089 211.451 132.647 212.336 133.532C213.221 134.417 213.68 135.22 215.368 135.22C217.057 135.22 220.4 135.433 222.187 134.876C225.842 133.745 231.251 132.614 235.25 131.581C237.069 131.122 238.462 130.942 238.938 130.483C239.397 130.024 241.773 126.926 241.691 126.418C241.609 125.91 241.986 125.189 241.314 124.648C240.642 124.091 239.741 124.009 239.659 123.173C239.577 122.321 239.413 122.075 239.905 122.157C240.413 122.239 240.757 122.501 241.642 122.452C242.527 122.419 243.412 122.616 243.248 121.862C243.084 121.108 242.691 120.551 242.232 119.502C241.773 118.436 240.839 116.502 240.167 115.732C240.02 115.568 239.888 115.42 239.757 115.289C240.151 114.781 240.773 114.486 241.249 115.371C241.708 116.256 242.396 117.322 242.642 116.945C242.888 116.568 242.609 114.994 242.56 114.273C242.511 113.552 242.937 113.388 243.101 113.716C243.265 114.06 242.888 115.584 243.347 116.601C243.822 117.617 244.412 118.928 245.723 119.485C251.116 121.747 253.918 114.88 253.46 113.142C253.542 112.683 253.804 113.863 253.755 114.667C253.705 115.47 253.033 120.813 250.116 122.976C248.247 124.353 245.068 124.452 245.33 127.058C245.412 127.861 246.428 128.402 245.412 128.5C244.396 128.582 242.609 128.123 242.101 128.664C240.806 130.073 242.576 131.876 245.117 132.089C246.559 132.221 248.477 132.679 249.067 131.909C250.591 129.942 253.148 130.532 253.443 130.057C253.656 129.713 253.689 124.14 253.689 124.14C250.64 124.206 250.575 125.369 248.526 126.041C248.28 126.123 247.985 126.009 248.182 125.582C248.919 124.124 252.263 123.419 253.804 123.222C253.837 121.845 253.886 120.452 253.935 119.076C254.214 119.026 254.492 118.961 254.771 118.912C254.689 120.321 254.607 121.731 254.509 123.14C258.688 124.025 259.917 126.025 259.426 126.238C259.245 126.304 258.885 125.992 257.033 125.058C256.295 124.681 255.672 124.353 254.64 124.173C254.64 124.173 254.41 130.073 254.787 130.663C254.787 131.188 263.097 131.417 263.097 129.795C263.097 128.811 256.115 118.207 256.115 118.207C256.115 118.207 255.656 117.535 256.164 117.535C256.23 117.535 257.77 119.977 260.671 120.583C262.72 121.01 266.342 119.764 265.851 116.617C265.638 115.257 264.507 113.896 265.146 113.896C265.785 113.896 266.457 114.273 266.375 113.683C266.293 113.093 264.851 111.913 264.72 110.798C264.589 109.7 264.376 108.258 264.048 107.586C262.655 104.816 257.524 108.946 255.787 108.209C253.787 107.356 255.181 105.291 254.705 104.406C254.558 104.128 253.378 103.964 252.673 103.751C251.968 103.538 251.28 102.734 251.165 102.456C251.05 102.177 250.69 101.44 250.788 101.276C250.87 101.095 251.362 101.456 251.755 101.702C252.148 101.931 253.427 102.275 253.886 102.226C254.345 102.177 254.771 102.062 254.853 101.898C254.935 101.718 254.787 101.079 254.41 101.079C252.804 100.964 251.788 100.8 251.198 99.7186C250.919 99.2596 251.394 99.7186 252.099 100.03C252.869 100.358 253.886 100.341 254.705 100.259C254.705 100.259 254.59 99.4727 254.328 99.358C254.082 99.2269 252.247 99.3252 252.411 98.8663C252.591 98.4073 254.197 98.5876 254.41 98.5876C254.623 98.5876 255.738 98.3254 255.787 98.6204C255.82 98.9154 255.721 107.242 255.934 107.34C256.148 107.422 257.033 106.963 257.967 106.488C258.901 106.029 263.966 101.112 264.31 100.309C264.654 99.5055 264.49 99.2105 264.179 99.0793C263.884 98.9482 263.245 99.7513 262.95 100.309C262.654 100.866 257.541 105.422 257.197 105.177C256.852 104.931 256.852 98.6696 256.983 98.4073C257.115 98.1615 261.655 95.3587 260.966 90.5892C259.294 91.5562 257.967 92.3102 254.705 92.4413C254.672 93.228 254.689 94.8834 254.656 95.6702C255.902 95.4407 256.18 97.4075 254.246 97.2928C253.509 97.2436 252.607 97.5878 252.066 96.8503C251.706 96.3586 251.673 95.9652 252.394 96.2766C252.837 96.4733 253.328 96.3913 253.656 96.3258C253.656 96.1291 253.656 95.916 253.656 95.7029C253.64 94.6048 253.607 93.4902 253.591 92.3921C253.591 92.3921 253.197 92.3593 252.837 92.261C252.788 92.5068 252.689 93.9492 252.689 93.9492C252.525 93.8836 252.558 93.9656 252.378 93.9164C252.329 93.523 252.148 92.638 252.099 92.2446C250.362 92.1626 248.362 91.5562 246.625 90.5072C246.625 95.0309 249.264 98.686 249.608 99.2432C250.198 100.177 250.165 106.144 250.165 106.144C248.723 105.373 248.493 104.488 245.215 104.488C243.232 104.488 240.265 105.455 239.38 105.963C237.725 106.914 236.315 109.356 237.725 110.7C238.823 111.749 239.118 111.716 239.085 112.569C239.052 113.191 238.675 114.158 238.544 114.814C238.364 114.847 238.151 114.912 237.922 115.043C236.856 115.634 236.446 116.863 235.758 116.699C235.086 116.535 235.119 116.24 235.758 115.519C236.201 115.011 238.184 111.733 236.725 111.421C235.955 111.257 235.07 113.667 234.66 114.093C234.234 114.519 233.775 115.453 233.054 115.191C232.332 114.945 233.775 114.011 234.119 113.421C234.463 112.831 235.135 111.356 235.135 110.798C235.135 109.831 235.66 106.75 233.742 106.898C232.316 107.012 227.317 110.88 227.825 113.027C227.858 113.536 227.825 113.88 228.333 114.634C228.841 115.388 228.923 116.027 228.923 116.797C228.923 117.568 228.923 119.715 229.169 120.567C229.415 121.419 230.234 122.55 230.825 123.648C231.415 124.747 232.185 125.255 232.136 125.812C232.087 126.353 232.185 127.172 231.595 127.385C231.005 127.598 223.941 129.795 223.514 129.582C223.088 129.369 222.793 129.205 223.006 128.828C223.219 128.451 223.941 127.32 223.891 126.402C223.81 124.533 222.17 124.255 221.22 124.009C219.007 123.419 216.417 125.402 216.401 125.402C215.598 125.484 215.336 125.566 215.336 124.812C215.336 122.862 213.844 122.14 213.484 123.337C213.549 124.452 213.484 125.287 213.533 125.992C213.566 126.713 212.73 127.959 210.828 127.779C206.846 127.435 206.469 126.959 206.829 126.484C207.141 126.058 208.075 125.664 207.009 124.599C206.551 124.14 204.846 123.845 202.781 123.845C200.716 123.845 200.994 124.927 200.486 124.878C200.24 124.861 199.454 124.304 198.126 123.96C196.012 123.419 193.143 122.96 193.586 122.681C193.93 122.468 194.93 122.173 195.962 121.829C196.979 121.485 197.733 121.96 197.814 121.026C197.896 120.092 197.814 119.256 198.028 118.78C198.241 118.322 198.585 117.682 198.962 118.322C199.339 118.961 199.814 120.01 201.338 121.026C203.272 122.321 210.189 125.402 210.042 120.649C210.009 119.256 208.567 117.65 207.976 117.059C207.386 116.469 210.173 118.027 211.746 118.027C213.32 118.027 215.762 116.764 216.057 116.666C216.352 116.584 216.86 116.797 216.434 117.387C216.008 117.977 214.533 118.436 214.697 120.174C214.992 123.157 222.728 122.714 224.023 121.272C226.661 118.338 226.235 109.52 225.907 109.356C225.367 109.061 225.776 109.274 223.957 109.946C217.794 112.241 214.68 114.24 207.616 113.404C203.863 112.962 198.896 110.88 198.896 109.487C198.978 109.192 198.978 109.241 200.748 110.126C202.519 111.011 203.289 111.225 205.272 111.815C207.255 112.405 206.337 111.683 205.649 111.143C205.731 111.175 202.191 108.7 200.912 107.258C200.289 106.553 200.584 105.635 201.388 106.275C203.24 107.766 206.321 110.061 209.37 110.93C210.73 111.274 211.32 111.011 210.812 110.471C209.665 109.241 203.781 106.898 202.01 103.964C201.748 103.538 201.076 102.915 201.748 102.915C202.42 102.915 205.092 105.537 205.846 106.258C206.6 106.979 210.533 109.094 212.435 109.602C215.205 110.339 224.088 106.57 225.53 104.554C226.104 103.751 225.678 101.653 223.777 102.8C222.81 103.39 220.384 105.258 220.04 104.963C219.696 104.668 222.072 102.98 222.072 102.98C224.744 100.964 225.416 101.898 227.219 102.456C228.382 102.816 230.234 102.784 232.742 102.407C234.004 102.128 234.43 102.636 234.152 102.03C233.873 101.407 232.972 100.931 231.824 100.423C229.743 99.4891 227.317 99.0302 225.268 100.128C224.842 100.309 223.056 101.685 223.465 101.095C223.891 100.505 224.531 99.8497 225.039 99.0302C225.744 97.8992 226.678 95.7849 226.924 91.9823C226.776 91.4742 226.793 90.2286 226.039 90.5236C224.908 90.9661 225.121 100.735 215.123 104.882C214.254 105.242 214.483 100.784 214.615 100.391C214.746 100.014 216.172 99.4563 216.581 99.1613C219.237 97.637 221.302 93.0641 221.925 91.3431C222.564 89.6057 222.777 86.9505 222.777 86.5735C222.777 86.1966 222.318 85.6065 221.892 85.9835C221.466 86.3605 221.089 86.8686 220.876 87.8848C220.663 88.901 219.646 93.6869 219.269 94.0967C218.892 94.5064 217.45 96.2438 216.008 97.0961C214.565 97.9484 213.221 98.3254 213.221 98.3254C213.221 98.3254 213.68 107.16 213.057 107.373C212.418 107.586 211.877 108.389 212.041 107.537C212.205 106.684 212.172 98.0468 212.172 98.0468C212.172 98.0468 215.254 96.883 215.303 96.4241C215.336 95.9652 215.155 94.9982 215.319 94.277C215.647 92.9002 218.925 91.9332 219.073 90.8842C219.171 90.2122 218.433 89.7697 217.008 90.1794C215.795 90.54 214.139 91.5234 212.746 91.4087C212.008 91.3431 209.96 89.4746 212.697 89.3435C214.123 89.2779 216.417 89.196 216.647 89.196C218.761 88.4912 218.319 86.4424 217.204 86.4096C217.171 86.4096 209.648 86.803 207.895 86.7047M235.758 134.81C234.922 134.597 234.824 135.318 235.119 135.564C235.414 135.81 236.315 136.531 238.004 136.875C240.396 137.351 244.084 137.908 247.69 137.564C253.115 137.039 255.246 135.581 259.59 135.662C264.277 135.744 268.653 140.252 272.685 139.76C273.357 139.678 273.784 139.203 273.57 138.793C273.357 138.367 272.472 138.285 272.095 138.285C268.309 138.285 264.638 134.679 260.36 134.187C255.148 133.581 251.083 136.007 244.855 136.318C241.068 136.515 238.741 135.515 235.758 134.81ZM245.182 139.186C244.789 139.662 245.379 140.088 246.051 140.416C251.083 142.776 254.492 143.94 259.901 141.924C260.245 141.792 260.999 141.694 261.294 142.284C261.589 142.874 270.62 163.198 270.997 163.755C271.374 164.296 272.341 164.608 272.653 164.05C272.948 163.51 272.308 160.543 272.013 160.035C271.735 159.56 263.884 144.349 262.933 141.514C262.72 140.891 262.999 140.186 263.687 140.121C264.064 140.071 264.654 139.826 264.654 139.367C264.654 138.908 264.49 138.482 263.851 138.514C263.212 138.564 261.95 139.268 261.573 139.58C254.787 144.857 245.953 138.301 245.182 139.219M253.214 148.611C252.886 150.283 252.722 150.233 253.083 150.643C253.443 151.037 254.312 151.332 254.902 151.463C255.492 151.594 257 152.168 257.901 152.577C258.819 153.003 259.737 153.38 259.999 153.38C260.262 153.38 261.229 153.102 261.081 152.381C260.934 151.659 260.507 148.054 260.507 147.562C260.507 147.07 260.655 144.579 260.704 144.071C260.753 143.563 260.868 143.104 260.622 143.055C260.376 143.005 259.376 143.727 258.721 144.153C258.065 144.579 255.639 145.005 255.377 145.005C253.935 145.005 253.558 146.923 253.23 148.594M244.15 140.268C243.888 140.268 238.397 146.021 237.938 146.562C237.479 147.119 238.102 147.414 238.528 147.545C238.954 147.677 242.462 148.398 242.806 148.431C244.445 148.627 247.297 143.333 247.657 143.907C247.821 144.169 247.149 145.267 246.854 145.89C246.559 146.529 245.969 147.873 245.756 148.644C245.543 149.398 246.723 149.496 247.198 149.693C247.657 149.906 248.297 149.824 249.182 150.25C250.067 150.676 250.575 151.184 251.214 150.889C251.853 150.594 252.394 149.578 252.394 148.644C252.394 147.595 253.279 144.972 253.279 144.956C253.197 144.53 252.64 144.202 252.312 144.12C251.968 144.038 250.116 143.186 249.608 143.022C249.1 142.858 245.035 140.612 244.822 140.481C244.609 140.35 244.15 140.268 244.15 140.268ZM237.758 138.465C232.365 136.81 225.629 137.121 220.761 138.564C218.138 139.334 217.27 140.383 214.746 141.76C214.746 141.76 211.861 137.367 211.189 137.269C210.517 137.187 209.157 138.121 209.157 138.121C220.794 151.987 232.447 165.87 244.084 179.736C242.822 180.326 232.414 179.31 232.414 179.31C232.414 179.31 231.562 180.998 232.169 181.178C232.759 181.342 235.889 181.178 238.085 181.605C240.282 182.031 243.888 182.621 244.691 182.358C245.74 182.031 248.133 181.064 247.231 179.605C246.805 178.933 225.301 154.167 225.301 154.167C229.235 154.397 237.364 154.429 245.084 157.003C256.459 160.789 267.539 167.509 267.949 167.378C268.752 167.214 268.981 166.476 268.981 166.083C267.588 165.313 266.244 164.575 264.949 163.903C265.9 163.592 266.588 162.625 266.588 161.477C266.588 160.084 265.556 158.953 264.277 158.953C262.999 158.953 261.966 160.084 261.966 161.477C261.966 161.821 262.032 162.166 262.146 162.461C261.606 162.182 261.065 161.92 260.524 161.674C261.163 161.248 261.606 160.461 261.606 159.576C261.606 158.232 260.606 157.134 259.376 157.134C258.147 157.134 257.131 158.232 257.131 159.576C257.131 159.756 257.147 159.937 257.18 160.117C256.869 159.986 256.557 159.838 256.262 159.707C256.836 159.281 257.213 158.56 257.213 157.757C257.213 156.445 256.246 155.38 255.049 155.38C253.853 155.38 252.886 156.445 252.886 157.757C252.886 157.953 252.902 158.15 252.951 158.33C252.574 158.183 252.197 158.035 251.821 157.888C252.329 157.478 252.656 156.806 252.656 156.052C252.656 154.79 251.722 153.757 250.558 153.757C249.395 153.757 248.46 154.774 248.46 156.052C248.46 156.281 248.493 156.511 248.559 156.724C248.28 156.642 248.002 156.544 247.739 156.462C248.149 156.052 248.395 155.478 248.395 154.839C248.395 153.61 247.493 152.626 246.379 152.626C245.264 152.626 244.363 153.61 244.363 154.839C244.363 155.069 244.396 155.298 244.461 155.495C244.117 155.413 243.789 155.314 243.461 155.233C243.92 154.839 244.215 154.233 244.215 153.544C244.215 152.364 243.347 151.414 242.265 151.414C241.183 151.414 240.315 152.364 240.315 153.544C240.315 153.921 240.396 154.282 240.56 154.577C240.118 154.495 239.659 154.397 239.216 154.315C239.741 153.954 240.069 153.315 240.069 152.594C240.069 151.463 239.233 150.545 238.2 150.545C237.168 150.545 236.332 151.463 236.332 152.594C236.332 153.102 236.496 153.561 236.774 153.921C236.217 153.839 235.676 153.774 235.119 153.708C235.742 153.397 236.168 152.708 236.168 151.922C236.168 150.84 235.365 149.955 234.365 149.955C233.365 149.955 232.562 150.84 232.562 151.922C232.562 152.577 232.841 153.151 233.299 153.512C232.611 153.446 231.906 153.38 231.218 153.315C231.874 153.053 232.332 152.348 232.332 151.545C232.332 150.496 231.562 149.66 230.595 149.66C229.628 149.66 228.858 150.512 228.858 151.545C228.858 152.249 229.218 152.872 229.743 153.2C228.972 153.135 228.202 153.085 227.415 153.02C228.12 152.807 228.628 152.102 228.628 151.282C228.628 150.283 227.891 149.463 226.973 149.463C226.055 149.463 225.317 150.283 225.317 151.282C225.317 152.02 225.727 152.659 226.317 152.938C225.662 152.889 224.99 152.84 224.318 152.774C224.727 152.463 224.99 151.938 224.99 151.348C224.99 150.381 224.285 149.611 223.4 149.611C222.859 149.611 222.367 149.922 222.089 150.381C221.777 150.02 221.449 149.643 221.105 149.25C237.233 149.004 243.986 150.561 259.77 156.363C259.77 156.363 265.556 158.56 266.08 158.609C268.473 158.527 266.719 156.839 263.802 155.691C261.606 154.806 248.313 150.152 239.511 148.873C230.677 147.578 225.153 148.004 220.105 148.086C218.106 145.775 216.122 143.448 216.122 143.333C222.007 139.268 227.399 138.318 235.004 138.957C236.233 139.104 236.889 139.137 237.479 139.023C238.069 138.891 237.627 138.4 237.758 138.432M183.571 140.924C183.981 142.235 187.374 151.84 187.882 156.74C188.39 161.641 188.98 168.164 189.144 170.361C189.308 172.557 189.472 175.442 189.734 176.36C189.996 177.294 191.422 176.868 191.422 176.868C195.946 175.18 200.24 173.885 205.059 173.885C206.419 173.885 210.369 173.737 210.796 173.737C211.222 173.737 211.55 172.885 210.96 172.295C210.369 171.705 198.437 153.938 198.011 154.79C197.651 155.528 205.452 167.755 207.141 171.016C207.714 172.131 207.698 172.131 206.223 172.196C203.338 172.36 195.717 172.967 193.34 173.622C192.143 173.95 192.422 173.868 192.176 172.18C191.635 168.361 187.013 140.645 184.047 140.17C183.637 140.104 183.358 140.416 183.522 140.907M160.33 161.215C158.592 162.034 155.675 163.378 152.643 164.477C147.857 166.214 142.874 167.41 142.464 167.574C140.678 168.263 154.102 166.394 160.363 163.821C162.608 162.903 164.509 162.018 163.657 160.936C162.805 159.871 161.215 160.805 160.33 161.215ZM138.924 148.693C138.547 149.906 138.416 151.84 137.629 153.282C136.695 154.97 133.532 159.543 133.237 159.871C132.942 160.215 132.581 160.838 132.581 160.838C132.581 160.838 131.762 162.493 132.811 162.084C133.876 161.658 134.368 161.149 134.679 160.723C134.974 160.297 135.187 160.002 135.22 160.379C135.253 160.592 132.679 163.247 136.023 163.247C138.187 163.247 139.957 163.674 140.465 163.378C140.973 163.083 141.645 162.625 141.645 161.477C141.645 160.33 141.514 157.412 141.481 156.363C141.448 155.298 141.186 153.987 141.448 153.741C141.694 153.495 142.382 153.741 142.382 154.495C142.382 155.249 142.514 160.297 142.596 160.494C142.678 160.707 142.841 161.297 143.235 161.166C143.612 161.035 144.185 159.986 144.267 159.428C144.497 157.773 143.612 154.642 143.054 152.84C142.891 152.282 142.923 152.118 143.136 152.168C143.35 152.217 143.776 153.905 144.448 153.938C145.12 153.987 144.71 153.2 144.612 152.446C144.579 152.135 144.103 150.807 143.89 149.529C143.694 148.332 143.743 147.168 143.612 147.103C143.235 146.939 142.661 146.873 142.399 147.25C142.153 147.627 141.514 148.136 141.088 148.185C140.809 148.217 140.071 148.185 139.58 148.136C139.022 148.103 139.104 148.021 138.908 148.676M162.838 135.826C162.477 135.482 162.215 135.04 162.133 134.466C162.034 133.81 161.067 133.892 159.723 133.942C155.708 134.073 152.856 136.957 149.693 139.318C149.184 139.695 148.676 140.071 148.168 140.432C151.856 140.809 155.38 141.35 158.74 142.038C160.248 140.547 161.608 138.351 162.854 135.826M138.645 105.57C138.596 107.111 138.023 108.012 139.252 107.963C149.447 107.586 156.921 107.865 166.706 105.193C168.099 104.816 170.295 103.718 170.689 103.374C171.066 103.029 172.164 102.57 170.525 102.702C166.05 104.144 161.313 105.078 156.609 105.619C151.922 106.16 144.546 105.095 139.104 105.144C138.58 105.144 138.678 105.045 138.678 105.57M151.807 82.9677C151.053 83.7708 150.365 83.5086 151.299 85.164C152.233 86.8194 154.134 87.2783 153.839 88.6715C153.544 90.0647 152.61 91.3431 152.61 92.2282C152.61 93.1133 153.036 92.9985 153.839 93.4083C154.642 93.8344 154.774 93.7853 154.38 94.4245C154.003 95.0637 152.856 95.3587 152.905 96.2766C152.938 97.2108 152.987 98.0468 153.872 97.555C154.757 97.0469 155.56 95.8996 155.855 96.0799C156.15 96.2438 155.609 98.014 155.642 99.0302C155.773 102.128 157.789 100.849 158.052 100.177C158.396 99.2924 158.642 97.6862 158.642 96.883C158.642 96.0799 159.199 96.0307 159.363 96.4569C159.527 96.883 159.281 97.6042 160.215 98.3254C161.084 98.9974 163.1 99.2924 162.788 97.7681C162.543 96.588 161.657 96.8011 161.838 96.5061C162.002 96.211 162.592 96.1619 163.313 96.67C164.034 97.1781 164.411 98.014 164.919 97.26C165.427 96.5061 165.427 96.6208 164.28 95.7357C163.133 94.8506 161.707 94.4245 160.723 93.3591C159.74 92.3101 160.363 91.589 159.199 91.7529C158.035 91.9168 158.773 93.2772 157.888 93.2772C157.003 93.2772 155.937 92.261 155.986 91.4251C156.036 90.5728 155.904 89.6057 156.445 88.3765C157.003 87.1472 156.904 85.2459 156.363 84.5248C155.823 83.8036 156.019 82.1154 154.511 81.5581C152.987 81.0008 152.43 81.6401 152.315 82.1482C152.184 82.6563 151.807 82.9513 151.807 82.9513M147.513 80.3288C147.349 80.755 147.218 80.5747 147.037 82.2793C146.414 86.5735 145.628 90.5728 144.038 93.9656C142.661 96.9158 140.53 99.5055 139.334 100.079C139.416 101.21 139.498 102.341 139.58 103.472C143.612 99.0302 146.398 98.8991 148.381 80.5583C148.217 80.0502 147.48 80.3452 147.48 80.3452M150.627 66.856C149.545 67.8722 148.873 68.0033 148.349 68.3639C147.726 68.8065 146.349 69.5604 146.759 70.5602C146.972 71.0683 147.595 71.5928 149.086 70.7897C150.266 70.1505 153.315 67.7739 153.315 66.184C153.315 64.7417 153.151 64.463 150.627 66.856ZM135.269 67.8722C135.105 68.5114 134.335 68.8065 135.187 69.7407C136.039 70.675 138.58 71.5928 139.842 71.5928C141.104 71.5928 142.038 71.7239 143.268 71.6256C144.497 71.5436 144.956 71.9206 145.005 70.9536C145.054 69.9866 144.792 69.1834 144.546 68.8392C144.3 68.495 143.317 68.0361 142.858 68.282C142.382 68.5442 141.465 68.872 140.399 68.577C139.334 68.282 139.301 68.3967 138.58 67.9378C137.859 67.4788 136.711 67.1838 136.253 67.3477C135.794 67.5116 135.285 67.8558 135.285 67.8558M116.109 195.274C114.699 195.29 112.388 197.978 111.88 198.732C111.372 199.503 117.289 212.353 118.469 212.779C119.649 213.205 119.567 212.107 119.567 211.091C119.567 210.074 119.731 198.995 119.911 198.159C120.075 197.306 120.583 197.388 119.829 196.798C118.649 195.88 116.715 195.094 116.109 195.274ZM49.3348 190.734C48.6136 191.455 48.0727 191.045 48.1547 191.93C48.2366 192.815 47.9416 193.307 48.7939 193.094C49.6462 192.881 50.6132 191.701 50.9902 191.193C51.3672 190.685 51.5147 190.619 52.0883 189.587C52.662 188.554 51.9572 188.144 51.9572 188.144C50.7279 188.226 50.0723 189.996 49.3348 190.734ZM68.9539 182.211C68.4459 182.719 67.2985 182.719 67.2985 183.375C67.2985 184.03 66.8232 186.767 67.2821 186.931C67.7411 187.095 68.0525 186.981 68.5606 186.653C69.0523 186.309 69.1015 184.899 69.3965 184.522C69.9865 183.801 71.6911 183.162 70.888 182.637C70.5438 182.408 69.1998 181.752 68.9539 182.211ZM61.6439 184.637C61.3816 185.227 60.6769 186.194 59.9229 186.145C59.1034 186.079 57.448 185.948 55.8581 185.948C54.2682 185.948 52.5637 185.784 51.6786 185.669C50.7935 185.538 49.9248 184.751 48.2858 185.833C46.6304 186.915 45.5814 189.324 45.27 190.406C44.9586 191.488 41.533 200.044 40.5823 203.223C39.6317 206.387 40.1398 206.075 39.3695 208.108C38.6155 210.14 36.6978 211.91 36.1406 213.254C35.7144 214.238 34.7638 214.942 34.3049 215.614C33.5345 216.729 33.6984 219.827 33.7312 219.778C33.7312 219.778 34.1573 219.466 34.6982 219.04C34.9769 218.647 35.2555 218.27 35.4358 217.876C35.8455 216.975 38.9105 212.385 39.2383 211.992C39.8939 211.255 40.9429 206.567 41.5658 204.911C42.4181 202.617 44.4668 197.651 44.9094 196.274C45.4503 194.536 45.6633 193.815 45.8436 192.979C46.0075 192.143 47.3679 189.685 48.0891 188.488C49.5478 186.079 56.989 187.767 59.5459 187.39C60.9883 187.177 60.8571 186.636 61.4964 186.03C61.8242 185.735 61.775 185.145 61.6603 184.653M43.7621 209.239C43.9424 209.091 44.1226 208.944 44.2702 208.796C45.483 207.714 48.2202 205.682 48.2694 204.862C48.335 204.043 49.3348 200.486 50.1707 200.044C50.9902 199.601 54.2355 196.487 56.317 195.602C58.415 194.717 59.3001 194.323 60.054 194.717C60.8244 195.094 63.1026 197.192 63.5452 197.765C63.9877 198.339 64.4958 198.978 65.0695 198.913C65.217 198.913 65.6267 198.863 66.1676 198.814C66.1676 198.814 64.9875 192.734 64.3974 190.963C63.5943 184.243 64.8236 179.72 64.6925 179.457C64.5614 179.195 63.8402 180.129 63.5452 180.424C63.3976 180.572 63.0698 180.834 62.7584 181.031C62.9551 183.112 63.3321 187.571 63.3321 188.406C63.3321 189.505 63.201 191.324 62.6109 191.357C62.0209 191.406 60.3326 191.144 59.2673 191.144C58.2019 191.144 56.6448 191.275 55.2517 191.57C53.8585 191.865 53.5143 192.537 52.8751 193.389C52.2358 194.241 50.5149 195.88 50.0395 196.602C49.5642 197.323 49.3348 197.962 49.1217 198.88C48.9086 199.814 47.876 199.929 47.3679 200.224C46.8598 200.519 45.8928 202.469 45.6306 202.846C45.3847 203.223 43.172 206.616 42.877 207.288C42.582 207.96 42.7131 208.648 43.1228 209.025C43.2376 209.124 43.4343 209.189 43.6965 209.239M73.4121 155.888C72.232 156.265 72.1828 156.544 71.3469 156.675C68.0033 157.183 68.5934 155.888 67.8394 158.298C67.1018 160.625 63.1846 168.148 61.1849 171.524C60.9063 172 58.4642 176.114 61.0702 173.524C61.775 172.819 62.8404 171.754 62.9715 171.574C63.1846 171.279 63.9877 170.951 63.7746 171.344C63.5615 171.721 62.0864 173.688 62.0372 174.163C61.9881 174.639 61.5291 174.753 63.0534 175.311C64.5777 175.868 65.6759 176.245 67.233 176.294C68.8064 176.343 71.1339 176.343 71.3797 175.868C71.642 175.409 72.0189 174.721 71.8059 173.54C71.5928 172.36 71.3469 163.526 71.3469 163.526C71.3469 163.526 72.314 172.41 72.7073 172.737C73.0843 173.065 74.3627 172.36 74.8545 171.983C75.3626 171.606 76.0837 170.754 75.7395 169.787C75.3953 168.82 72.4451 162.182 72.3631 161.969C72.2812 161.756 73.7235 163.444 74.2316 163.657C74.6414 163.837 74.4775 158.92 74.2972 156.839C74.2152 155.986 74.3627 155.773 73.4285 155.937M70.2324 149.217C70.8388 149.217 71.3305 149.938 71.3305 150.824C71.3305 151.709 70.8388 152.43 70.2324 152.43C69.6259 152.43 69.1342 151.709 69.1342 150.824C69.1342 149.938 69.6259 149.217 70.2324 149.217ZM84.115 143.546C77.2638 144.317 70.1668 144.235 63.5124 143.202C59.1525 142.514 59.3328 142.497 55.0714 144.431C54.4157 144.726 53.8913 145.021 53.4979 145.267C53.5635 145.415 53.5962 145.562 53.6126 145.726C53.6454 146.152 53.5798 148.25 53.4159 150.561C53.8913 150.233 54.3666 149.889 54.7599 149.561C55.7761 148.676 56.4973 147.447 62.1684 147.48C72.0025 147.562 75.3953 149.676 84.115 143.546ZM84.2789 141.415C84.3444 141.055 84.4428 140.711 84.5411 140.367C78.8701 139.711 73.1335 139.268 66.8888 140.367C59.4476 141.858 75.297 144.661 84.2625 141.415M84.9017 139.383C85.0001 139.154 85.1148 138.924 85.2295 138.711C68.4622 136.548 59.759 138.187 51.3835 142.006C51.7114 142.612 52.0555 143.071 52.3506 143.464C58.9559 139.924 68.3147 137.334 84.9017 139.383ZM111.126 132.089C109.159 126.074 96.8502 112.274 94.5064 112.437C92.3921 112.962 87.5406 114.962 80.8205 115.47C75.5101 115.879 62.4142 116.092 62.4142 114.65V112.421C62.4142 112.421 70.7077 113.667 78.739 113.404C86.3768 113.159 93.7689 111.651 93.5558 111.454C93.1133 111.077 89.6221 110.143 89.1796 109.946C88.737 109.749 88.8682 108.995 90.0647 108.93C91.589 108.848 104.865 113.798 107.012 114.552C109.471 115.437 132.073 118.108 133.515 116.666C133.81 116.371 133.351 115.011 133.269 114.076C129.156 113.945 117.027 113.454 115.011 113.355C111.077 113.601 92.3101 108.34 91.9823 107.586C91.6709 106.832 92.1134 105.93 91.5398 105.308C90.9661 104.668 79.2962 94.0803 78.7881 92.8838C78.28 91.6709 77.8375 90.7203 78.2145 90.4744C78.5914 90.2286 79.411 90.7203 79.7879 90.6056C80.1649 90.4744 80.6074 90.4089 80.0993 89.2779C79.5913 88.1306 73.5105 78.2964 72.7401 77.6736C71.9862 77.0344 70.0685 75.6412 69.7571 75.2642C69.4457 74.8873 70.1996 69.626 69.6915 68.1017C69.1834 66.5774 68.6098 65.8234 68.0361 65.7579C67.9705 65.7579 67.905 65.7906 67.823 65.8726C67.9869 67.2822 67.823 67.6427 67.823 68.8556C67.823 70.4455 66.9707 70.6913 66.5282 72.986C66.0856 75.2642 62.4306 77.3622 60.9063 78.5095C59.382 79.6568 58.7756 80.378 59.2837 80.4436C59.7918 80.5091 61.2505 80.378 61.6275 81.2795C62.742 83.8855 57.2185 82.9677 55.9728 82.6399C53.9732 82.1154 50.7115 83.361 48.7775 83.6561C47.958 83.7872 48.0727 83.3938 47.958 82.394C47.8269 81.3778 50.3018 80.5583 51.0066 80.0502C52.7767 78.7554 51.6294 77.0344 51.8589 75.6576C52.2194 73.6088 54.2846 73.9202 55.7598 74.5267C56.5137 74.8381 56.1367 75.6084 55.8253 76.2313C55.5139 76.8705 55.2517 77.3786 55.8253 77.3786C56.399 77.3786 57.5955 77.313 58.3658 77.313C59.1362 77.313 59.3165 76.3624 59.6934 76.1001C60.0704 75.8543 61.5947 75.969 62.2995 75.7232C63.0043 75.4609 63.8893 73.8875 64.0696 73.3794C64.2663 72.8713 64.0696 71.9862 63.8893 71.5436C63.8074 71.3634 63.6271 71.0519 63.3485 70.5274C62.2011 70.4783 59.8573 70.5274 59.0706 70.3471C58.2511 70.1505 56.6612 69.9702 56.6612 69.9702C56.6612 69.9702 57.1038 67.9378 57.1693 67.1838C57.2349 66.4299 57.2349 66.0365 57.2349 65.0859C57.2349 64.1352 57.743 60.9719 57.743 60.513C57.743 60.054 56.022 61.6603 54.7599 61.8406C53.4979 62.0373 49.679 61.8406 49.2364 61.8406C48.7939 61.8406 50.3182 63.4304 50.941 64.8236C51.5802 66.2168 51.0721 66.2824 51.4491 67.233C51.8261 68.1836 51.9572 69.2654 52.0228 70.0193C52.0883 70.7733 52.2686 71.0355 51.318 71.0355C50.3673 71.0355 48.548 71.1667 47.7285 71.7403C46.909 72.314 46.3353 72.7074 46.4009 73.0843C46.4665 73.4613 48.2858 73.8875 48.4169 74.5267C48.7119 76.0182 48.1874 76.8705 46.6795 75.9854C46.6795 75.9854 44.6799 74.33 44.4013 73.9202C42.6147 71.3306 43.0081 70.9208 41.7624 68.6589C41.5658 68.3148 41.6149 67.8886 41.2052 67.8886C39.0416 67.8886 39.2875 75.2642 40.6151 76.9197C41.2871 77.7392 42.1722 80.0666 42.2378 80.378C42.3033 80.6894 42.4017 80.8206 42.2705 81.2631C42.1394 81.7056 39.4186 87.5897 40.2381 91.1464C41.0577 94.7031 42.4017 92.2282 44.3849 94.3917C45.8764 96.0144 46.3353 100.538 46.5484 105.095C46.5484 105.193 46.5484 111.765 46.4828 111.847C45.8272 112.88 44.7619 112.634 45.1552 114.47C45.3519 115.371 45.4666 116.322 46.0567 117.436C46.8762 118.961 49.4823 121.059 49.9248 121.305C50.3673 121.55 52.5636 122.927 54.5797 122.354C56.6121 121.78 57.3332 121.501 58.5461 121.501C59.759 121.501 61.8406 121.173 61.8406 122.075C61.8406 122.976 62.6109 124.681 61.7094 125.566C60.8244 126.451 57.4316 129.319 56.989 130.319C56.5465 131.335 57.1857 132.45 56.104 132.958C53.6454 134.105 50.6132 133.073 50.1215 134.548C49.8265 135.482 49.8265 136.482 49.9904 137.465C58.8084 133.302 78.2309 132.86 86.4424 136.728C86.508 136.744 86.5571 136.777 86.6227 136.81C88.0323 135.384 89.9008 134.515 91.9495 134.515C92.6215 134.515 93.2608 134.597 93.8836 134.777C99.7841 132.401 105.455 131.745 111.061 132.155M47.958 85.9671C47.581 88.3109 46.8762 89.1304 47.0729 91.7365C47.2696 94.3425 47.581 93.0641 47.8432 95.7357C48.0891 98.3909 47.7777 104.8 48.2202 105.324C48.6628 105.832 49.0397 105.832 50.564 105.898C52.0883 105.963 53.4815 106.094 54.0552 105.963C54.6288 105.832 55.3828 105.521 55.645 104.505C55.8909 103.488 57.5463 98.5385 57.9233 97.6534C58.3003 96.7683 57.6119 96.7028 59.6443 96.0635C61.6767 95.4243 61.2997 96.1291 62.1192 95.4899C62.9387 94.8506 62.7584 93.7853 62.6929 92.7691C62.6273 91.7529 62.824 90.3597 62.5617 89.786C62.3159 89.2124 61.6767 88.901 61.103 88.7698C60.5293 88.6387 59.7098 89.5402 59.5787 88.7043C59.4476 87.8848 59.5787 87.2455 59.382 86.426C59.1853 85.6065 59.4476 85.2132 58.4314 85.2132C57.4152 85.2132 51.0066 84.9673 49.4823 85.4754C47.958 85.9835 47.8924 86.3277 47.958 85.9835M48.5644 112.437C48.3677 113.044 46.8598 113.323 46.6959 113.962C46.532 114.601 46.4992 116.191 46.8926 116.699C47.2696 117.207 47.9416 116.404 49.0725 117.715C50.2198 119.01 50.5968 119.452 51.3508 120.321C52.1047 121.173 52.9078 121.173 53.7274 120.6C54.5469 120.026 55.0222 119.633 56.2351 118.584C57.448 117.535 58.71 117.486 58.6444 116.289C58.5789 115.076 58.5789 114.044 58.1364 113.404C57.6938 112.765 58.0708 112.585 56.6121 112.7C56.1203 112.732 53.4487 114.404 53.5307 111.716C53.5962 109.635 53.1537 108.93 50.9246 109.438C47.7613 110.159 49.5478 110.192 48.548 112.454M58.8575 111.536C58.8575 112.995 59.3656 114.519 59.3656 114.519C63.6763 111.372 66.7904 99.6202 66.0201 92.7363C65.2006 85.4098 65.0694 90.5564 64.9055 92.8674C64.4466 99.5547 60.5457 113.109 58.8575 111.552M215.188 71.0683C215.188 71.0683 214.844 70.0193 213.795 70.3144C212.746 70.593 212.238 71.265 212.205 71.5273C212.172 71.7895 212.074 76.1985 211.976 76.7558C211.877 77.3294 211.73 77.0672 210.796 77.4114C209.878 77.7556 206.829 79.034 205.649 81.4434C204.485 83.8528 204.535 83.7216 204.453 84.5903C204.354 85.4426 205.239 85.8852 205.633 85.9179C210.124 86.2949 214.91 86.2785 219.171 84.5248C219.712 84.2953 220.466 83.9839 220.384 83.5413C219.745 80.5255 217.794 78.8209 214.828 78.5587C213.893 78.4767 213.09 77.8211 214.287 77.8211C217.319 77.8211 219.679 78.5915 221.023 81.5581C221.662 82.9513 221.548 84.6231 221.646 84.6887C221.843 84.8526 221.744 85.0165 222.498 85.0329C224.744 85.1312 221.859 77.018 216.663 76.723C216.09 76.6902 215.778 76.7885 215.45 76.6574C215.123 76.5263 215.073 76.2804 215.073 75.9526C215.073 75.6248 215.172 71.0192 215.172 71.0192" fill="black"/>
<path d="M326.577 139.203L287.207 136.22L276.062 135.384L104.324 122.353L98.3254 119.452L94.5065 121.78L96.8667 118.748L75.7888 121.075L95.031 127.975L101.948 126.156L326.954 141.874L326.577 139.203Z" fill="black"/>
<path d="M326.364 137.695L275.718 133.843L102.439 122.501L99.7842 121.272L95.9652 123.599L97.4403 121.698L78.9193 122.894L96.4078 126.041L101.735 124.648L327.003 140.514L326.364 137.695Z" fill="#EFD50F"/>
<path d="M266.31 133.155C266.31 133.155 266.342 133.089 266.31 133.089C266.244 133.089 266.179 133.089 266.113 133.089C266.113 133.089 266.113 133.089 266.113 133.073C266.179 133.073 266.228 133.056 266.293 133.04C266.31 133.04 266.342 133.007 266.342 133.007C266.342 132.991 266.31 132.974 266.293 132.958C266.277 132.958 266.244 132.958 266.211 132.958C266.031 132.991 265.851 133.024 265.654 133.04C265.293 133.073 264.933 133.106 264.572 133.122C264.081 133.138 263.572 133.106 263.081 133.056C262.851 133.04 262.638 132.991 262.442 132.909C262.196 132.794 261.95 132.696 261.72 132.581C261.442 132.45 261.147 132.335 260.95 132.122C260.917 132.089 260.884 132.073 260.852 132.057C260.868 132.089 260.884 132.106 260.901 132.122C260.803 132.073 260.704 132.04 260.606 131.991C260.393 131.909 260.147 131.893 259.917 131.942C259.819 131.958 259.704 131.975 259.606 131.942C259.491 131.942 259.393 131.925 259.278 131.909C259 131.86 258.705 131.843 258.475 131.712C258.442 131.696 258.41 131.696 258.36 131.68C258.36 131.68 258.344 131.712 258.328 131.745C258.328 131.729 258.311 131.712 258.311 131.729C258.262 131.729 258.229 131.729 258.196 131.729C258.164 131.729 258.131 131.729 258.098 131.762C258.033 131.811 257.967 131.86 257.901 131.925C257.852 131.958 257.787 132.007 257.77 132.057C257.705 132.204 257.574 132.352 257.721 132.515C257.639 132.515 258.065 132.597 258.623 132.745C258.918 132.81 259.213 132.892 259.409 133.122C259.475 133.204 259.54 133.269 259.606 133.335H259.59C259.59 133.335 259.688 133.45 259.688 133.466C259.737 133.564 259.819 133.646 259.737 133.761C259.622 133.925 259.557 134.105 259.442 134.269C259.377 134.368 259.311 134.45 259.229 134.531C259.082 134.679 258.934 134.843 258.77 134.974C258.541 135.171 258.295 135.367 258.049 135.564C258 135.597 258.016 135.63 258.049 135.662L258.016 135.531C258.016 135.531 257.082 135.613 256.852 135.597C256.803 135.597 256.754 135.597 256.705 135.597C256.607 135.597 256.525 135.597 256.443 135.58C256.344 135.58 256.344 135.761 256.541 135.777C256.557 136.007 256.541 136.039 256.41 136.334C256.394 136.384 256.361 136.449 256.41 136.498C256.426 136.515 256.41 136.564 256.426 136.597C256.426 136.646 256.443 136.711 256.492 136.744C256.574 136.81 256.672 136.843 256.754 136.892C256.82 136.924 256.885 136.941 256.934 136.957C257.033 136.99 257.115 137.006 257.229 136.957C257.311 136.924 257.41 136.843 257.524 136.941C257.524 136.941 257.574 136.941 257.606 136.941C258 136.941 258.393 136.875 258.803 136.974C259.278 137.072 259.754 137.138 260.229 137.154C260.393 137.154 260.54 137.154 260.688 137.088C260.704 137.088 260.753 137.072 260.77 137.088C260.819 137.121 260.835 137.088 260.868 137.088C261.065 136.957 261.261 136.81 261.442 136.679C261.884 136.367 262.327 136.056 262.786 135.744C262.884 135.679 262.966 135.613 263.097 135.662C263.146 135.662 263.196 135.662 263.245 135.662C263.277 135.662 263.31 135.646 263.343 135.63C263.622 135.564 263.9 135.597 264.179 135.63C264.638 135.662 265.097 135.712 265.556 135.761C265.949 135.794 266.785 135.925 266.785 135.875L266.326 133.204L266.31 133.155Z" fill="black"/>
<path d="M278.389 131.696C275.603 131.319 269.211 134.564 262.638 131.696C262.655 131.729 262.671 131.761 262.687 131.778C261.851 131.253 260.802 131.794 259.95 131.22C259.95 131.237 259.934 131.253 259.917 131.286C259.917 131.253 259.901 131.253 259.901 131.253C259.475 131.286 259.016 131.86 259.262 132.286C259.409 132.351 261.13 132.696 261.294 133.351C261.294 133.351 261.294 133.351 261.294 133.368C261.966 134.449 259.999 135.515 259.655 136.351L259.622 136.17C259.622 136.17 258.786 136.039 258.573 136.449C258.016 137.531 260.344 137.318 261.769 137.859C263.097 137.908 263.982 136.416 265.244 136.301C270.178 136.564 280.061 138.596 284.88 137.58L278.422 131.663L278.389 131.696Z" fill="#EFD50F"/>
<path d="M287.961 136.629C287.715 135.761 288.404 133.876 287.781 132.516C287.191 131.204 283.421 128.992 281.979 126.648C281.438 125.779 281.11 124.665 280.651 123.321C280.356 123.452 280.077 123.616 279.799 123.812C279.586 123.976 279.389 124.156 279.209 124.353C280.11 126.353 280.733 127.812 280.733 127.844C281.831 130.057 285.077 132.417 285.372 132.827C285.667 133.237 286.24 134.4 286.24 135.171C286.24 135.941 282.618 137.793 281.34 137.842C280.061 137.875 275.783 137.695 275.783 137.695C275.783 137.695 278.406 138.809 280.766 139.154C283.339 139.514 287.994 136.826 287.945 136.613" fill="black"/>
</svg>
