<svg width="76" height="144" viewBox="0 0 76 144" fill="none" xmlns="http://www.w3.org/2000/svg">
<path d="M16.6333 0.500046C14.0333 1.43338 6.43333 6.66672 3.13333 9.76672C-0.0333414 12.7001 -0.433341 13.7 0.533325 15.9334C2.79999 21.1 4.86666 24.2001 8.39999 27.7334C9.93333 29.2667 10.7 29.7667 12.2333 30.2001C13.3 30.5001 14.3333 30.8667 14.5333 31.0334C14.7333 31.2001 15.1 32.7001 15.3 34.4001C15.8667 38.7001 16.5667 40.5667 20.8 48.8334C22.9 52.8667 24.8333 56.9001 25.1667 57.8334C25.6 59.1001 25.7333 60.6667 25.7333 64.3334V69.1667L23.6667 74.3334C19.7667 84.0334 18.9667 86.8334 18 94.7001C17.1333 101.667 16.6 103.533 14.6333 106.533C11.5 111.333 10.6667 113.833 10.6667 118.733C10.6667 122.167 9.26666 130.8 8.39999 132.767C8.03333 133.533 6.73333 135.433 5.49999 137C1.99999 141.367 1.89999 142.033 4.56666 142.667C5.43333 142.867 6.49999 143.133 6.89999 143.233C8.06666 143.5 9.03333 142.667 11.6 139.1C14.2667 135.367 14.6667 134.533 14.6667 132.567C14.6667 130.667 16.9667 125.033 19.2333 121.4C22.3 116.5 22.7667 115.233 22.9333 111.833C23.0667 109.067 23.1667 108.733 24.3333 107C25.0333 106 26.3333 103.667 27.2333 101.833C28.1333 100 30.2 96.1667 31.8333 93.3334C33.4667 90.5001 35.1333 87.5334 35.5667 86.7667C36.0333 85.9667 36.5 85.2667 36.6667 85.1667C36.8 85.0667 37.2667 86.7667 37.7 88.9334C38.3 92 38.4667 93.9334 38.4667 98V103.167L36.9 107.7C35 113.167 34.7667 114.667 35.4667 118.2C35.9667 120.833 35.9333 121.067 35 127.367C34.4333 130.933 33.7 134.667 33.3333 135.667C31.9667 139.533 32.5667 140.567 36.5667 141.033C38 141.233 40.6333 141.767 42.4 142.233C45.9667 143.167 48.0667 143.067 48.8 141.933C49.3667 141.033 48.7333 140.333 46.1333 139C43.0333 137.4 40.7 135.767 40.2667 134.833C39.8 133.8 40.7333 130.3 43.8 121.933C46.6667 114.033 47.3333 111.5 47.3333 108.8C47.3333 107.733 47.4667 106.333 47.6667 105.7C47.8333 105.1 48.1333 103.467 48.3333 102.1C48.6 100.167 49.1 98.7001 50.6667 95.5667C53.4333 89.9334 53.8 88.1334 53.5667 81.5C53.3 74.2667 52.5333 68.4001 51.3333 64.5334C50.8 62.7334 50.1333 59.8667 49.8333 58.1667C49.5667 56.4334 48.9667 53.9001 48.5333 52.5334C47.7333 50.0334 47.7333 50.0001 48.3667 49.1667C48.7333 48.7334 49.3333 47.7001 49.7 46.8667C50.0667 46.0334 51 44.6001 51.8 43.6667C53.0667 42.1667 53.9667 40.4334 54.8 37.9001C54.9667 37.4001 55.2 37.3334 56.2333 37.5667C58.5 38.0334 61.4 37.7667 64.2667 36.8C67.7333 35.6667 70.2667 34.1334 73.5 31.2334C76.3667 28.6001 76.4333 28.4 75.3333 24.3667C74.4667 21.3334 73.7333 19.8667 71.3667 16.5001C70.3333 15.0334 68.9 12.6334 68.1667 11.1667C66.5 7.83339 65.5333 7.23338 62.4333 7.43338C59.8 7.63338 58.2667 8.53339 57.5333 10.3334C56.8667 11.9667 56.8667 12.6001 57.5 13.6667C57.7333 14.1334 58.2 15 58.4667 15.5667C59.0333 16.8334 60.3 17.1001 60.5667 16.0334C60.7333 15.3667 62.1333 15.0001 63.5333 15.2667C64.3333 15.4001 64.3333 15.4334 64.3333 19.5334C64.3333 21.8001 64.2667 23.6667 64.2 23.6667C64.1333 23.6667 63.5333 23.4334 62.8667 23.1667C61.2 22.4667 59.5333 22.8334 57.9667 24.2334L56.7 25.3667L54.7 24.6334C52.1 23.7001 50.3667 23.9 47.3 25.4L44.9667 26.5667L43.0333 25.4L41.1 24.2667L42.1333 21.8C42.7 20.4 43.3667 19.2667 43.7 19.1667C44.5667 18.8667 45.6 16.4667 46.0333 13.7C46.7333 9.03337 45.7333 6.73337 42.2667 5.03337C40.3 4.10004 39.0333 3.83337 36.9667 3.96671C35.7667 4.03337 33.2 6.33339 32.3333 8.16672C31.3667 10.2001 30.9333 13.6001 31.2667 16.9C31.6 20.2667 31.1 21.5334 29.1333 22.3667L27.8333 22.9L26.1667 21.6334C24 20.0001 21.8 19.0001 20.3 19.0001C19.4 19.0001 18.8667 18.7334 17.9667 17.8C16.3333 16.0334 14.0333 14.6667 12.8 14.6667H11.7667L12.4667 13.2334C12.8333 12.4667 13.4333 11.2334 13.7667 10.5C14.4333 8.93338 15.3667 7.86671 17.0667 6.56671L18.3 5.63338L19.6333 6.96672C20.4 7.73338 21 8.53339 21 8.76672C21 10.2334 23.2333 11.3334 23.5667 10.0334C23.6667 9.63339 24.0667 9.33339 24.6 9.26672C26.3667 9.06673 27.3667 6.13338 26.3333 4.20004C25.7 3.00005 23.9 1.83337 21.1667 0.833374C18.5333 -0.0999603 18.3 -0.133286 16.6333 0.500046Z" fill="#252525"/>
</svg>
