<svg width="212" height="388" viewBox="0 0 212 388" fill="none" xmlns="http://www.w3.org/2000/svg">
<g filter="url(#filter0_d_120_1637)">
<path d="M44.2821 1.16211C37.331 3.69083 17.0125 17.8698 8.18993 26.2687C-0.276139 34.2161 -1.34554 36.9254 1.23884 42.9763C7.29877 56.9746 12.824 65.3735 22.2703 74.9465C26.3697 79.1009 28.4194 80.4555 32.5188 81.6296C35.3705 82.4424 38.1331 83.4358 38.6678 83.8874C39.2025 84.3389 40.1828 88.403 40.7175 93.0089C42.2325 104.659 44.1039 109.716 55.4217 132.114C61.0361 143.041 66.2048 153.969 67.096 156.498C68.2545 159.93 68.611 164.174 68.611 174.109V187.204L63.0857 201.202C52.6591 227.483 50.5203 235.069 47.9359 256.382C45.6189 275.257 44.193 280.315 38.9351 288.443C30.5582 301.448 28.3303 308.221 28.3303 321.497C28.3303 330.799 24.5874 354.189 22.2703 359.518C21.2901 361.595 17.8145 366.743 14.5172 370.987C5.15997 382.818 4.89262 384.624 12.0219 386.34C14.339 386.882 17.1907 387.605 18.2601 387.876C21.3792 388.598 23.9636 386.34 30.8255 376.677C37.9549 366.562 39.0243 364.304 39.0243 358.976C39.0243 353.828 45.1733 338.566 51.2332 328.722C59.4319 315.446 60.6796 312.014 61.1252 302.802C61.4816 295.306 61.749 294.403 64.8681 289.707C66.7395 286.998 70.215 280.676 72.6212 275.709C75.0273 270.742 80.5526 260.356 84.9193 252.679C89.286 245.003 93.7418 236.965 94.9003 234.888C96.148 232.721 97.3956 230.824 97.8412 230.553C98.1977 230.282 99.4453 234.888 100.604 240.758C102.208 249.067 102.653 254.305 102.653 265.323V279.321L98.465 291.604C93.3854 306.415 92.7615 310.479 94.633 320.052C95.9697 327.186 95.8806 327.819 93.3854 344.887C91.8704 354.551 89.9098 364.666 88.9295 367.375C85.2758 377.851 86.8799 380.651 97.5738 381.915C101.406 382.457 108.446 383.902 113.169 385.166C122.705 387.695 128.319 387.424 130.28 384.353C131.795 381.915 130.101 380.019 123.15 376.406C114.862 372.071 108.624 367.646 107.466 365.117C106.218 362.317 108.713 352.835 116.912 330.167C124.576 308.763 126.358 301.899 126.358 294.584C126.358 291.694 126.715 287.901 127.25 286.185C127.695 284.559 128.497 280.134 129.032 276.431C129.745 271.193 131.082 267.22 135.27 258.73C142.667 243.468 143.647 238.591 143.023 220.619C142.31 201.021 140.261 185.126 137.052 174.65C135.627 169.774 133.844 162.007 133.042 157.401C132.329 152.705 130.725 145.841 129.567 142.138C127.428 135.365 127.428 135.275 129.121 133.017C130.101 131.843 131.705 129.043 132.686 126.785C133.666 124.528 136.161 120.644 138.3 118.115C141.687 114.051 144.093 109.355 146.321 102.492C146.766 101.137 147.39 100.956 150.153 101.588C156.213 102.853 163.966 102.13 171.63 99.5113C180.898 96.4407 187.671 92.2863 196.315 84.4293C203.979 77.2946 204.157 76.7528 201.216 65.8251C198.899 57.6068 196.939 53.6331 190.612 44.5116C187.849 40.5379 184.017 34.0355 182.056 30.0618C177.601 21.0306 175.016 19.405 166.728 19.9469C159.688 20.4888 155.589 22.9272 153.628 27.804C151.846 32.2293 151.846 33.9452 153.539 36.8351C154.163 38.0995 155.41 40.4476 156.123 41.9829C157.638 45.4147 161.025 46.1372 161.738 43.2473C162.183 41.441 165.926 40.4476 169.669 41.1701C171.808 41.5313 171.808 41.6216 171.808 52.7299C171.808 58.8711 171.63 63.9286 171.451 63.9286C171.273 63.9286 169.669 63.2964 167.887 62.5739C163.431 60.6773 158.975 61.6708 154.787 65.4638L151.4 68.5344L146.053 66.5476C139.102 64.0189 134.468 64.5607 126.269 68.6248L120.031 71.7856L114.862 68.6248L109.694 65.5542L112.456 58.8711C113.971 55.078 115.754 52.0074 116.645 51.7365C118.962 50.9237 121.724 44.4213 122.883 36.9254C124.754 24.2818 122.081 18.0503 112.813 13.4444C107.555 10.9157 104.168 10.1932 98.6432 10.5545C95.435 10.7351 88.5731 16.9666 86.256 21.9337C83.6717 27.4427 82.5131 36.6545 83.4043 45.5953C84.2955 54.7168 82.9587 58.1486 77.7008 60.4064L74.2253 61.8514L69.7695 58.4196C63.9769 53.9943 58.0952 51.285 54.085 51.285C51.6788 51.285 50.2529 50.5625 47.8468 48.0338C43.4801 43.2472 37.331 39.5445 34.0337 39.5445H31.2711L33.1426 35.6611C34.1229 33.5839 35.7269 30.2424 36.6181 28.2555C38.4004 24.0109 40.8957 21.1209 45.4407 17.5988L48.738 15.0701L52.3026 18.6826C54.3523 20.7597 55.9564 22.9272 55.9564 23.5594C55.9564 27.5331 61.9272 30.5133 62.8184 26.9912C63.0857 25.9075 64.1551 25.0947 65.581 24.914C70.3042 24.3722 72.9777 16.4247 70.2151 11.1867C68.5218 7.93546 63.7095 4.77457 56.402 2.06522C49.3618 -0.463501 48.738 -0.553802 44.2821 1.16211Z" fill="#252525"/>
</g>
<defs>
<filter id="filter0_d_120_1637" x="0" y="0" width="212.979" height="396" filterUnits="userSpaceOnUse" color-interpolation-filters="sRGB">
<feFlood flood-opacity="0" result="BackgroundImageFix"/>
<feColorMatrix in="SourceAlpha" type="matrix" values="0 0 0 0 0 0 0 0 0 0 0 0 0 0 0 0 0 0 127 0" result="hardAlpha"/>
<feOffset dx="6" dy="4"/>
<feGaussianBlur stdDeviation="2"/>
<feComposite in2="hardAlpha" operator="out"/>
<feColorMatrix type="matrix" values="0 0 0 0 0 0 0 0 0 0 0 0 0 0 0 0 0 0 0.25 0"/>
<feBlend mode="normal" in2="BackgroundImageFix" result="effect1_dropShadow_120_1637"/>
<feBlend mode="normal" in="SourceGraphic" in2="effect1_dropShadow_120_1637" result="shape"/>
</filter>
</defs>
</svg>
