<svg width="40" height="40" viewBox="0 0 40 40" fill="none" xmlns="http://www.w3.org/2000/svg">
<path d="M20.2675 18.1166C20.1009 18.0999 19.9009 18.0999 19.7175 18.1166C15.751 17.9833 12.601 14.7333 12.601 10.7333C12.601 6.64992 15.901 3.33325 20.0009 3.33325C24.0842 3.33325 27.4009 6.64992 27.4009 10.7333C27.3842 14.7333 24.2342 17.9833 20.2675 18.1166Z" stroke="white" stroke-width="2.5" stroke-linecap="round" stroke-linejoin="round"/>
<path d="M11.9345 24.2667C7.90121 26.9667 7.90121 31.3667 11.9345 34.0501C16.5179 37.1167 24.0345 37.1167 28.6179 34.0501C32.6512 31.3501 32.6512 26.9501 28.6179 24.2667C24.0512 21.2167 16.5345 21.2167 11.9345 24.2667Z" stroke="white" stroke-width="2.5" stroke-linecap="round" stroke-linejoin="round"/>
</svg>
